<svg width="105" height="104" viewBox="0 0 105 104" fill="none" xmlns="http://www.w3.org/2000/svg">
<path d="M98.1697 53.6405C95.6851 53.3914 73.7549 51.2733 68.7938 53.2193C66.0845 54.1629 57.5311 59.5311 52.5112 63.4878C52.5112 59.7983 50.7192 57.4332 48.6942 54.7643C46.9204 52.4275 44.9076 49.7769 43.6035 45.5326C39.5536 32.3968 48.2184 25.2325 56.1906 21.535C62.2026 18.7487 64.3106 14.715 65.0517 12.0481C66.8276 14.4234 69.5694 19.4938 70.2599 28.7256C71.4384 40.2678 62.8182 48.8758 53.1309 52.381C51.9524 45.5286 52.9284 39.5975 56.1683 33.8224C56.2462 33.683 56.2959 33.5297 56.3146 33.3711C56.3332 33.2126 56.3205 33.0519 56.277 32.8983C56.2336 32.7447 56.1603 32.6011 56.0614 32.4758C55.9625 32.3505 55.8399 32.2459 55.7005 32.168C55.5612 32.0901 55.4079 32.0404 55.2493 32.0217C55.0908 32.003 54.9301 32.0158 54.7765 32.0592C54.6228 32.1027 54.4793 32.1759 54.354 32.2748C54.2287 32.3738 54.1241 32.4964 54.0462 32.6357C50.302 39.3302 49.3402 46.1907 51.0209 54.2297C51.0551 54.3926 51.1225 54.5468 51.2188 54.6826C51.3151 54.8183 51.4383 54.9329 51.5807 55.0191C51.7231 55.1053 51.8817 55.1613 52.0466 55.1837C52.2116 55.206 52.3794 55.1943 52.5396 55.1491C56.3737 53.9313 59.9625 52.0454 63.1402 49.5784C70.025 44.2144 73.3216 36.9408 72.6918 28.5433C71.5417 13.5587 64.9485 7.07891 63.6667 8.29387C63.4638 8.40068 63.2953 8.5627 63.1807 8.76121C63.066 8.95972 63.0099 9.18662 63.0187 9.41569C63.0187 9.66678 63.1422 15.6505 55.1882 19.3379C38.0916 26.9456 35.9836 42.6855 46.7766 56.2405C49.0466 59.2071 50.6564 61.4102 49.9112 65.4662C47.4813 67.3028 45.5373 68.8053 43.5569 70.326C43.8647 66.3632 42.3582 63.1517 38.4946 62.528C36.5628 62.2425 35.0967 62.7305 33.4018 63.2772C31.9034 63.7672 30.2065 64.3241 27.653 64.5408C20.4584 65.13 18.3707 58.2776 15.9083 53.1383C14.3512 49.8984 11.7066 47.9889 9.75858 46.948C19.5755 42.0598 32.7093 43.6109 38.1645 55.5804C34.3171 52.464 29.8946 50.6274 24.7513 49.9996C24.5919 49.9782 24.4299 49.9886 24.2747 50.0302C24.1194 50.0718 23.9739 50.1438 23.8466 50.2421C23.7194 50.3403 23.6129 50.4628 23.5333 50.6025C23.4538 50.7422 23.4028 50.8963 23.3832 51.0559C23.3636 51.2155 23.3759 51.3773 23.4194 51.5321C23.4628 51.6869 23.5366 51.8315 23.6363 51.9576C23.7361 52.0837 23.8599 52.1887 24.0005 52.2666C24.1411 52.3445 24.2958 52.3937 24.4556 52.4113C30.7127 53.1747 35.8075 55.9104 40.0295 60.7723C40.8192 61.6917 42.3561 60.9748 42.1435 59.77C42.0585 59.2739 39.9161 47.594 28.6108 43.291C17.346 39.0082 6.73331 45.7493 6.28378 46.0388C6.08879 46.1655 5.93423 46.3453 5.83843 46.5572C5.74263 46.769 5.70961 47.0038 5.74329 47.2339C5.77697 47.4639 5.87594 47.6794 6.02846 47.8549C6.18097 48.0304 6.38062 48.1584 6.60372 48.2238C6.65434 48.2379 11.5466 49.7263 13.691 54.1852C17.8948 64.0163 21.7139 69.8664 34.143 65.5796C39.8432 63.4432 42.0808 66.2923 40.7949 72.4158C37.9316 74.5663 37.4436 78.4906 40.0234 80.9529C36.7065 80.3455 33.3897 80.068 28.8174 80.143C27.1629 80.1366 25.5219 80.4408 23.9798 81.04C23.4047 79.5355 24.7148 78.851 26.6912 78.3124C30.895 77.2635 36.1639 78.2922 36.2084 78.3124C36.5263 78.3779 36.8573 78.3145 37.1284 78.136C37.3996 77.9575 37.5887 77.6786 37.6542 77.3607C37.7197 77.0428 37.6563 76.7118 37.4778 76.4407C37.2993 76.1695 37.0204 75.9804 36.7025 75.9149C36.4656 75.8663 30.8545 74.7647 26.112 75.9473C22.3659 76.7937 20.4543 79.3067 21.8819 82.2995C20.7318 83.2695 20.0433 84.7943 20.262 86.2117C20.4645 89.073 26.4684 90.3608 31.1967 91.509C35.9472 92.6915 41.3072 93.3699 46.2359 94.4229C50.0266 95.2329 53.0499 95.5447 55.4596 95.5447C59.2503 95.5447 61.5223 94.7712 62.8709 93.9247C66.4226 91.7155 79.7731 80.2766 84.1713 76.4454C88.9785 72.2538 90.4668 71.8063 95.9159 71.3831C96.2382 71.3581 96.5373 71.2061 96.7475 70.9606C96.9577 70.7151 97.0617 70.3962 97.0367 70.0739C97.0118 69.7517 96.8598 69.4526 96.6143 69.2424C96.3688 69.0322 96.0498 68.9281 95.7276 68.9531C89.7885 69.4168 87.8607 69.9939 82.5655 74.6088C77.084 79.3877 64.746 89.8911 61.579 91.8593C57.0714 94.6335 47.3031 92.0618 40.1328 90.7982C37.1844 90.2819 34.4001 89.7858 31.7738 89.1418C29.3722 88.4837 23.5829 87.4024 22.6615 85.8574C22.5218 85.0251 23.2103 84.2091 23.9474 83.7534C24.0699 83.7063 24.183 83.6377 24.2815 83.5509C25.4074 82.9435 27.0091 82.5749 28.8396 82.5506C34.2867 82.4777 37.2958 82.9192 39.0859 83.2553C42.909 83.7818 47.9288 83.5226 52.1022 84.6242C52.3702 84.6912 52.653 84.665 52.904 84.5498C53.1551 84.4346 53.3594 84.2373 53.4832 83.9904C55.2712 80.4244 56.9783 76.1133 60.2526 73.8272L64.7439 71.1947C66.1067 70.3382 64.9262 68.3294 63.5168 69.0969C63.3751 69.1799 49.322 77.3992 45.8249 79.4869C43.8546 80.6614 42.0767 79.8919 41.2606 78.6769C40.0801 76.9152 41.1412 75.1778 42.4088 74.222C43.1843 73.6388 44.2859 72.7924 45.6831 71.7212C51.0978 67.4304 64.5921 57.3056 69.6828 55.4832C73.026 54.171 88.4054 55.1086 97.9287 56.0603C98.0885 56.0781 98.2502 56.0641 98.4045 56.019C98.5588 55.9739 98.7027 55.8986 98.8277 55.7975C98.9527 55.6964 99.0563 55.5715 99.1327 55.43C99.2091 55.2885 99.2566 55.1333 99.2726 54.9733C99.2885 54.8134 99.2725 54.6518 99.2256 54.498C99.1786 54.3443 99.1016 54.2014 98.9991 54.0776C98.8965 53.9538 98.7704 53.8516 98.628 53.7769C98.4856 53.7022 98.3299 53.6566 98.1697 53.6425V53.6405ZM52.1164 81.281L51.7397 82.0606C50.2878 81.7654 48.82 81.5551 47.3436 81.4308C48.7246 80.6107 51.3064 79.094 54.0684 77.4721C53.3455 78.7356 52.7158 80.0397 52.1164 81.281Z" fill="black"/>
</svg>
