<svg width="105" height="105" viewBox="0 0 105 105" fill="none" xmlns="http://www.w3.org/2000/svg">
<g clip-path="url(#clip0_12_1553)">
<g clip-path="url(#clip1_12_1553)">
<path d="M92.9586 78.7415C93.7509 77.5055 94.1914 76.0676 94.2308 74.5891C94.2702 73.1106 93.9069 71.6501 93.1816 70.3716L84.9899 55.8254C84.4836 54.9275 83.6504 54.2722 82.6733 54.0035C81.6962 53.7347 80.655 53.8745 79.7783 54.392L68.7305 60.933C67.8544 61.4529 67.2153 62.3079 66.9535 63.3104C66.6917 64.3129 66.8286 65.381 67.3342 66.2801L75.6267 81.0077H64.8319V73.8154C64.8319 72.7267 63.3861 72.3076 62.8482 73.2711L53.0249 90.9108C52.9337 91.075 52.8857 91.2607 52.8857 91.4497C52.8857 91.6387 52.9337 91.8244 53.0249 91.9886L62.8482 109.628C62.9645 109.837 63.145 110.001 63.3614 110.093C63.5779 110.186 63.8181 110.202 64.0447 110.14C64.2712 110.078 64.4713 109.941 64.6137 109.75C64.7562 109.559 64.8329 109.324 64.8319 109.084V101.906H73.8376C75.1281 101.908 76.3986 101.58 77.535 100.954C78.6714 100.327 79.6381 99.4202 80.3481 98.3155C80.3729 98.2774 92.9391 78.7796 92.9586 78.7415ZM69.1729 65.1915C68.9494 64.7928 68.8892 64.3196 69.0053 63.8755C69.1213 63.4314 69.4043 63.0525 69.7922 62.8218L80.8401 56.2899C81.0325 56.176 81.2449 56.1021 81.4652 56.0723C81.6855 56.0426 81.9094 56.0577 82.124 56.1166C82.3386 56.1756 82.5398 56.2773 82.716 56.416C82.8923 56.5547 83.0402 56.7277 83.1513 56.925L91.3429 71.4712C91.8746 72.4061 92.1399 73.4753 92.1086 74.5571C92.0774 75.639 91.7508 76.6901 91.166 77.5912C89.2052 80.839 83.8326 81.0005 77.9184 81.015C77.8853 80.7624 77.8042 80.5189 77.6795 80.2983L69.1729 65.1915ZM78.5785 97.1252C78.0619 97.9295 77.3583 98.5895 76.531 99.0456C75.7037 99.5017 74.7787 99.7396 73.8394 99.738H63.7719C63.4903 99.738 63.2203 99.8527 63.0211 100.057C62.822 100.261 62.7101 100.538 62.7101 100.827V105L55.1715 91.4551L62.7101 77.9178V82.0909C62.7101 82.3797 62.822 82.6566 63.0211 82.8607C63.2203 83.0649 63.4903 83.1796 63.7719 83.1796H76.0532C80.2119 83.1796 84.9138 83.2485 88.1912 82.2016L78.5785 97.1252ZM73.4076 55.2666C73.5932 55.2552 73.7725 55.1941 73.9278 55.0893C74.0831 54.9846 74.2088 54.8399 74.2924 54.6696L83.2185 36.5364C83.7087 35.5584 82.5761 34.5205 81.6842 35.1374L75.8444 39.1056L70.8611 31.4052C70.1514 30.3009 69.1853 29.3947 68.0495 28.768C66.9138 28.1412 65.644 27.8136 64.3541 27.8145C64.3541 27.8145 41.7594 27.8399 41.7558 27.838C40.2648 27.7905 38.7918 28.1832 37.5121 28.9694C36.2324 29.7555 35.1999 30.902 34.5375 32.2725L27.2271 47.3049C26.275 49.1665 27.0837 51.6595 28.9401 52.5522L40.356 58.3874C40.883 58.6595 41.4649 58.8011 42.0549 58.8011C42.7645 58.7998 43.4598 58.5963 44.0632 58.2135C44.6666 57.8306 45.1543 57.2834 45.4721 56.6329L52.8709 41.4226L58.8293 50.6507L52.9895 54.6188C52.0905 55.2267 52.5666 56.6891 53.646 56.6147L73.4076 55.2666ZM51.1597 40.0581L43.5715 55.6621C43.4727 55.8663 43.3356 56.0485 43.168 56.1981C43.0004 56.3478 42.8056 56.4621 42.5948 56.5344C42.384 56.6068 42.1614 56.6357 41.9397 56.6196C41.718 56.6035 41.5015 56.5426 41.3028 56.4405L29.8869 50.6035C29.4857 50.3979 29.1805 50.0375 29.0382 49.6014C28.8958 49.1654 28.928 48.6892 29.1277 48.2775L36.4381 33.245C36.9057 32.275 37.6291 31.4588 38.5261 30.8889C39.4232 30.319 40.4581 30.0183 41.5134 30.0208C45.2296 29.9065 48.3354 34.4099 51.611 39.4558C51.4229 39.6238 51.2695 39.8286 51.1597 40.0581ZM60.8927 51.8519C61.0091 51.7729 61.1092 51.6712 61.1872 51.5526C61.2652 51.434 61.3196 51.3008 61.3474 51.1606C61.3752 51.0204 61.3758 50.876 61.349 50.7356C61.3223 50.5951 61.2689 50.4615 61.1918 50.3423L54.4123 39.8531C52.0463 36.1825 49.5812 32.2507 46.9161 30.0153L64.3541 29.9972C65.2925 29.9958 66.2165 30.2334 67.0431 30.6889C67.8697 31.1443 68.573 31.8032 69.0897 32.6063L74.6464 41.2139C74.8018 41.4544 75.044 41.6218 75.3198 41.6792C75.5955 41.7367 75.8822 41.6797 76.1169 41.5206L79.5129 39.2181L72.6626 53.1347L57.4932 54.1616L60.8927 51.8519ZM47.316 81.2853H30.7292L36.1266 71.7016L42.1982 75.2941C43.122 75.8385 44.1944 74.7643 43.6458 73.8027L33.658 56.2609C33.5655 56.0966 33.4327 55.96 33.2729 55.8645C33.113 55.769 32.9316 55.718 32.7466 55.7166C32.7466 55.7166 12.9266 55.6204 12.9266 55.6186C11.8648 55.6186 11.4578 57.0955 12.3957 57.6507L18.4674 61.2433L13.9672 69.2467C13.3211 70.3917 12.9626 71.6834 12.924 73.0057C12.8854 74.3279 13.1678 75.6393 13.746 76.8219C13.7654 76.8582 23.9532 97.7693 23.9727 97.802C24.6199 99.1236 25.6134 100.234 26.8419 101.009C28.0703 101.784 29.4851 102.193 30.9274 102.189H47.3107C48.3225 102.188 49.2924 101.775 50.0077 101.041C50.7229 100.308 51.1251 99.3129 51.1261 98.2755V85.1972C51.1251 84.161 50.7236 83.1673 50.0094 82.4341C49.2953 81.7008 48.3267 81.2877 47.316 81.2853ZM15.8058 70.3353L20.8404 61.3957C20.9102 61.2718 20.9555 61.135 20.9737 60.9932C20.992 60.8514 20.9827 60.7072 20.9466 60.569C20.9104 60.4309 20.848 60.3014 20.763 60.1879C20.678 60.0745 20.572 59.9793 20.4511 59.9079L16.926 57.8213L32.129 57.8957L39.7951 71.3605L36.2699 69.2739C36.1492 69.2023 36.0159 69.1557 35.8777 69.1369C35.7394 69.1181 35.5989 69.1274 35.4641 69.1643C35.3293 69.2012 35.203 69.265 35.0923 69.352C34.9816 69.439 34.8886 69.5474 34.8188 69.6713L28.6817 80.5705C26.5334 84.3807 24.201 88.396 23.4383 91.8398L15.6519 75.8512C15.2292 74.9908 15.022 74.0362 15.0489 73.0733C15.0758 72.1104 15.3359 71.1695 15.8058 70.3353ZM49.0078 98.2774C49.0078 98.7376 48.8296 99.1789 48.5124 99.5045C48.1952 99.8301 47.7649 100.013 47.316 100.014H30.9274C29.8719 100.017 28.8365 99.7174 27.9388 99.1481C27.0411 98.5789 26.3169 97.763 25.8485 96.7932C24.0789 93.4311 26.636 88.5739 29.5807 83.3175C29.8106 83.4154 30.0573 83.4653 30.3063 83.4645H47.3107C47.7593 83.4649 48.1893 83.6478 48.5065 83.973C48.8237 84.2982 49.002 84.7391 49.0025 85.199L49.0078 98.2774Z" fill="black"/>
</g>
</g>
<defs>
<clipPath id="clip0_12_1553">
<rect width="103.677" height="103.677" fill="white" transform="translate(0.660156 0.676758)"/>
</clipPath>
<clipPath id="clip1_12_1553">
<rect width="85" height="85" fill="white" transform="translate(8 23)"/>
</clipPath>
</defs>
</svg>
