<svg width="105" height="105" viewBox="0 0 105 105" fill="none" xmlns="http://www.w3.org/2000/svg">
<path d="M39.7641 42H53.2336C55.0272 41.9981 56.7468 41.2812 58.0153 40.0064C59.2837 38.7317 59.9975 37.0032 60 35.2001V29.807C59.9994 28.0026 59.2864 26.2724 58.0178 24.9961C56.7491 23.7198 55.0284 23.0019 53.2336 23H39.7641C37.9705 23.0025 36.2511 23.72 34.9831 24.9952C33.715 26.2704 33.0019 27.9992 33 29.8022V35.1954C33.0006 36.9991 33.7133 38.7288 34.9816 40.0046C36.2498 41.2805 37.9699 41.9981 39.7641 42ZM35.8174 29.807C35.8174 28.754 36.233 27.7441 36.9729 26.9989C37.7129 26.2538 38.7167 25.8342 39.7641 25.8323H53.2336C54.2805 25.8335 55.2843 26.2522 56.0246 26.9964C56.7649 27.7407 57.1814 28.7497 57.1826 29.8022V35.1954C57.1814 36.2477 56.7648 37.2565 56.0244 38.0004C55.2841 38.7442 54.2803 39.1624 53.2336 39.163H39.7641C38.7177 39.1617 37.7146 38.7433 36.9747 37.9995C36.2348 37.2557 35.8186 36.2473 35.8174 35.1954V29.807Z" fill="black"/>
<path d="M86.7943 43.3711C86.6831 43.1323 77.5433 31.0686 77.4176 30.8585C77.3024 30.7049 77.1573 30.5757 76.9907 30.4784C76.8242 30.3811 76.6396 30.3177 76.4479 30.2919C76.2561 30.2661 76.0611 30.2784 75.8743 30.3281C75.6874 30.3779 75.5126 30.464 75.3599 30.5815L71.8008 33.3175C71.5034 33.5462 71.3079 33.8801 71.2556 34.2487C71.2032 34.6172 71.2982 34.9913 71.5203 35.2919L78.3292 44.5194L77.0525 46.9284C76.9474 47.1268 76.891 47.3468 76.8876 47.5707C76.8843 47.7946 76.9341 48.0162 77.0332 48.2176C78.8345 51.9014 81.956 53.1739 85.7086 51.7988C86.6129 60.0092 86.6758 80.5078 79.555 81.5344C77.8117 81.5344 76.2812 79.4502 76.2812 77.0723C76.2812 74.2957 75.4881 72.2138 73.9261 70.884C73.0033 70.1179 71.8737 69.6349 70.6764 69.4945V23.4407C70.6713 20.408 69.4489 17.5009 67.2771 15.3565C65.1053 13.212 62.1612 12.0051 59.0898 12H35.2708C32.1994 12.0051 29.2553 13.212 27.0835 15.3565C24.9116 17.5009 23.6893 20.408 23.6842 23.4407V93.1351H17.4508C17.066 93.1351 16.697 93.286 16.4249 93.5546C16.1528 93.8233 16 94.1876 16 94.5675C16 94.9474 16.1528 95.3118 16.4249 95.5804C16.697 95.8491 17.066 96 17.4508 96H76.9316C77.3164 96 77.6854 95.8491 77.9574 95.5804C78.2295 95.3118 78.3823 94.9474 78.3823 94.5675C78.3823 94.1876 78.2295 93.8233 77.9574 93.5546C77.6854 93.286 77.3164 93.1351 76.9316 93.1351H70.6764V72.3834C72.7075 72.8943 73.3361 74.5488 73.3797 77.058C73.6529 84.9366 82.2075 87.8779 86.2527 78.765C90.4067 71.0392 89.2291 46.8377 86.7943 43.3711ZM84.6472 49.1272C82.517 49.884 81.088 49.4233 79.9806 47.5849L81.3177 45.059C81.4428 44.8224 81.4984 44.5559 81.4783 44.2898C81.4583 44.0236 81.3633 43.7682 81.2041 43.5525L74.6926 34.719L75.9693 33.7353L84.2797 44.8059C84.4078 45.0948 84.9035 46.322 85.3484 49.0508C85.1118 49.0189 84.871 49.0452 84.6472 49.1272ZM26.5857 93.1351V23.4407C26.5908 21.1678 27.5074 18.9894 29.1351 17.3823C30.7628 15.7751 32.9689 14.87 35.2708 14.8649H59.0898C61.3916 14.87 63.5978 15.7751 65.2255 17.3823C66.8531 18.9894 67.7698 21.1678 67.7749 23.4407C67.7749 38.4816 67.7749 78.6313 67.7749 93.1351H26.5857Z" fill="black"/>
<path d="M63.6098 58.0367C63.3474 57.9753 63.0736 57.9912 62.8195 58.0827C62.5654 58.1741 62.3413 58.3374 62.1726 58.554C62.0528 58.7075 59.1856 62.267 53.8081 61.0021C41.8722 57.8214 34.6096 65.7819 39.1128 75.2672C37.2444 77.1534 35.7018 78.2178 33.6035 78.0024C33.414 77.9796 33.2219 77.996 33.0385 78.0507C32.8552 78.1054 32.6842 78.1973 32.5356 78.3211C32.3869 78.4448 32.2637 78.5979 32.1729 78.7714C32.0821 78.9449 32.0257 79.1353 32.007 79.3316C31.9882 79.5278 32.0074 79.726 32.0636 79.9145C32.1197 80.103 32.2116 80.278 32.3339 80.4294C32.4562 80.5808 32.6065 80.7055 32.776 80.7963C32.9454 80.887 33.1307 80.942 33.3209 80.9579C33.5987 80.9852 33.8694 81 34.1353 81C42.198 80.7178 43.9561 69.6879 53.2979 69.2993C53.4866 69.2874 53.6713 69.2373 53.8412 69.1517C54.0112 69.0661 54.1632 68.9467 54.2885 68.8004C54.4139 68.6541 54.5101 68.4837 54.5717 68.299C54.6333 68.1143 54.6592 67.9188 54.6477 67.7238C54.6362 67.5287 54.5876 67.3379 54.5048 67.1623C54.422 66.9866 54.3065 66.8296 54.1649 66.7C54.0233 66.5705 53.8585 66.4711 53.6797 66.4074C53.5009 66.3437 53.3118 66.3171 53.123 66.3289C47.4341 66.6829 44.004 70.0097 41.2853 72.9454C40.72 71.3909 40.2122 69.0122 41.2853 66.9428C43.513 62.6185 48.9839 62.8957 53.1829 63.8883C57.2406 64.8487 60.2491 63.6853 62.1295 62.4477C62.4121 70.183 54.3854 79.8911 46.6173 75.7029C46.2773 75.5429 45.8904 75.526 45.5385 75.6558C45.1866 75.7856 44.8975 76.0519 44.7324 76.3982C44.5673 76.7446 44.5392 77.1438 44.6541 77.5112C44.769 77.8785 45.0178 78.1853 45.3478 78.3663C50.0427 80.6361 54.9291 80.1906 59.7485 75.3192C66.6495 68.2522 64.7955 59.5095 64.714 59.1407C64.6499 58.8676 64.5121 58.6188 64.3167 58.4234C64.1212 58.228 63.8761 58.0939 63.6098 58.0367Z" fill="black"/>
</svg>
