<svg width="105" height="104" viewBox="0 0 105 104" fill="none" xmlns="http://www.w3.org/2000/svg">
<path d="M50.9022 69.3545H45.9755C45.9172 69.3547 45.86 69.3701 45.8096 69.3993C45.7592 69.4284 45.7172 69.4702 45.6879 69.5205L44.3616 71.8006C44.2026 72.076 44.1137 72.3862 44.1027 72.704C44.0918 73.0218 44.1591 73.3374 44.2988 73.6231L44.7949 74.6355C44.8749 74.8002 44.9995 74.9391 45.1545 75.0365C45.3095 75.1339 45.4887 75.1858 45.6717 75.1863H50.9022C51.1351 75.1858 51.3583 75.093 51.523 74.9283C51.6877 74.7636 51.7805 74.5404 51.781 74.3075V70.2333C51.7805 70.0004 51.6877 69.7772 51.523 69.6125C51.3583 69.4478 51.1351 69.355 50.9022 69.3545Z" fill="black"/>
<path d="M45.2403 68.9714L47.0627 65.8226C47.082 65.7887 47.1079 65.759 47.1388 65.7352C47.1697 65.7114 47.205 65.694 47.2427 65.684C47.2804 65.674 47.3197 65.6716 47.3584 65.677C47.397 65.6823 47.4342 65.6954 47.4677 65.7153L48.4802 66.3005C48.5367 66.3339 48.6027 66.3476 48.6678 66.3393C48.7329 66.3311 48.7934 66.3015 48.8398 66.2551C48.8862 66.2087 48.9158 66.1482 48.9241 66.083C48.9323 66.0179 48.9186 65.952 48.8852 65.8955L46.3317 61.5378C46.3059 61.4935 46.269 61.4568 46.2246 61.4312C46.1802 61.4056 46.1298 61.3921 46.0786 61.392L41.0345 61.3677C40.9695 61.3676 40.9063 61.3889 40.8546 61.4283C40.803 61.4677 40.7658 61.523 40.7487 61.5857C40.7316 61.6484 40.7357 61.715 40.7603 61.7751C40.7848 61.8353 40.8285 61.8857 40.8846 61.9185L41.8971 62.5037C41.931 62.523 41.9607 62.5488 41.9845 62.5797C42.0084 62.6105 42.0259 62.6458 42.036 62.6834C42.0462 62.7211 42.0488 62.7604 42.0437 62.799C42.0387 62.8377 42.026 62.8749 42.0064 62.9087L40.5505 65.4358C40.3722 65.744 40.2733 66.0918 40.2627 66.4477C40.2521 66.8036 40.3301 67.1566 40.4898 67.4749L43.4361 73.3716C43.4423 73.3816 43.4517 73.3893 43.4629 73.3934C43.474 73.3974 43.4862 73.3975 43.4975 73.3938C43.5087 73.39 43.5183 73.3826 43.5248 73.3727C43.5313 73.3628 43.5343 73.351 43.5332 73.3392C43.3909 72.7049 43.4822 72.0405 43.7904 71.4681L45.2403 68.9714ZM61.9906 61.1692C61.9329 61.0692 61.8561 60.9816 61.7645 60.9113C61.673 60.841 61.5684 60.7894 61.4569 60.7595C61.3454 60.7296 61.2291 60.7219 61.1146 60.737C61.0002 60.7521 60.8898 60.7895 60.7898 60.8473L57.2603 62.8844C57.0588 63.0013 56.9117 63.1932 56.8514 63.4183C56.791 63.6433 56.8223 63.8831 56.9384 64.0852L59.4027 68.3497C59.4314 68.4002 59.4729 68.4421 59.5231 68.4713C59.5732 68.5005 59.6302 68.5158 59.6883 68.5157H62.3207C62.638 68.516 62.9504 68.4384 63.2308 68.2897C63.5111 68.1411 63.7507 67.926 63.9285 67.6632L64.5623 66.7237C64.6646 66.5719 64.7222 66.3944 64.7287 66.2115C64.7351 66.0286 64.6901 65.8475 64.5988 65.6889L61.9906 61.1692Z" fill="black"/>
<path d="M64.0745 68.4732C63.5965 68.9131 62.9762 69.1661 62.3269 69.186H59.4373H55.8026C55.7638 69.1863 55.7254 69.1789 55.6896 69.1643C55.6537 69.1496 55.6211 69.128 55.5936 69.1007C55.5661 69.0735 55.5443 69.041 55.5295 69.0052C55.5146 68.9695 55.5069 68.9311 55.5069 68.8924V67.7139C55.5066 67.6491 55.485 67.5862 55.4454 67.5349C55.4058 67.4836 55.3505 67.4467 55.2879 67.4299C55.2253 67.4131 55.159 67.4173 55.099 67.4419C55.0391 67.4665 54.9889 67.5101 54.9561 67.5661L52.4533 71.948C52.4285 71.993 52.4155 72.0435 52.4155 72.0949C52.4155 72.1462 52.4285 72.1967 52.4533 72.2417L54.9541 76.6216C54.9863 76.6784 55.0364 76.7229 55.0965 76.7483C55.1567 76.7736 55.2236 76.7783 55.2867 76.7616C55.3498 76.745 55.4056 76.7079 55.4455 76.6562C55.4853 76.6045 55.5069 76.5411 55.5069 76.4758V75.3034C55.5069 75.2255 55.5378 75.1508 55.5929 75.0958C55.648 75.0407 55.7227 75.0098 55.8005 75.0098H58.7205C59.0764 75.0098 59.4268 74.9216 59.7402 74.753C60.0537 74.5845 60.3204 74.3408 60.5166 74.0439L64.1514 68.5441C64.159 68.5337 64.1625 68.5208 64.1613 68.5079C64.16 68.4951 64.154 68.4831 64.1445 68.4744C64.135 68.4656 64.1226 68.4606 64.1097 68.4604C64.0968 68.4602 64.0842 68.4648 64.0745 68.4732ZM50.315 54.5821C50.14 54.3177 49.9029 54.1002 49.6243 53.9487C49.3458 53.7973 49.0343 53.7165 48.7173 53.7134L47.5853 53.7013C47.4021 53.6987 47.2219 53.7479 47.0653 53.8432C46.9088 53.9385 46.7823 54.076 46.7004 54.2399L44.3636 58.9256C44.3115 59.0289 44.2803 59.1414 44.2719 59.2567C44.2634 59.372 44.2779 59.4879 44.3144 59.5976C44.3509 59.7074 44.4088 59.8088 44.4846 59.8961C44.5605 59.9833 44.6529 60.0547 44.7565 60.1062L48.4014 61.9286C48.6098 62.0327 48.851 62.0498 49.0719 61.9761C49.2929 61.9025 49.4756 61.7441 49.5799 61.5358L51.781 57.1295C51.807 57.0773 51.819 57.0193 51.8159 56.961C51.8127 56.9028 51.7944 56.8464 51.7628 56.7974L50.315 54.5821Z" fill="black"/>
<path d="M49.311 53.1527C49.941 53.3106 50.4936 53.6892 50.8682 54.2199L52.4537 56.6336L54.4584 59.671C54.4795 59.7031 54.4941 59.7391 54.5013 59.7769C54.5084 59.8147 54.5081 59.8536 54.5002 59.8912C54.4923 59.9289 54.477 59.9646 54.4552 59.9963C54.4334 60.028 54.4056 60.0551 54.3733 60.076L53.3973 60.722C53.3434 60.7581 53.3029 60.811 53.282 60.8724C53.2612 60.9339 53.2611 61.0005 53.2818 61.0619C53.3025 61.1234 53.3429 61.1764 53.3967 61.2127C53.4505 61.2489 53.5148 61.2665 53.5796 61.2626L58.6136 60.9346C58.6649 60.9319 58.7146 60.9156 58.7576 60.8876C58.8006 60.8595 58.8355 60.8205 58.8586 60.7746L61.1346 56.2732C61.1638 56.2151 61.1731 56.1491 61.161 56.0853C61.1489 56.0215 61.1161 55.9634 61.0677 55.9201C61.0193 55.8768 60.958 55.8506 60.8932 55.8456C60.8285 55.8406 60.7639 55.8571 60.7094 55.8925L59.7313 56.5384C59.6664 56.5803 59.5876 56.595 59.5119 56.5795C59.4362 56.564 59.3696 56.5194 59.3264 56.4554L57.7165 54.0255C57.5203 53.7285 57.2536 53.4849 56.9401 53.3163C56.6267 53.1477 56.2763 53.0595 55.9204 53.0596H49.3231C49.3133 53.0621 49.3045 53.0675 49.2979 53.0751C49.2912 53.0826 49.2869 53.092 49.2856 53.102C49.2843 53.1121 49.286 53.1222 49.2905 53.1313C49.295 53.1403 49.3022 53.1478 49.311 53.1527Z" fill="black"/>
<path d="M79.7399 27.5553H76.905V25.1922C76.9045 24.6095 76.6729 24.0507 76.261 23.6385C75.8492 23.2263 75.2907 22.9942 74.7079 22.9931H74.1774C74.1774 22.9648 74.1936 22.9364 74.1997 22.904L75.0198 17.8416L77.8122 18.2892C77.8792 18.2998 77.9469 18.3052 78.0147 18.3054C78.9421 18.3357 79.5698 17.1997 79.0272 16.4303L75.7609 11.3679C75.6007 11.1206 75.356 10.9399 75.0724 10.8596C74.8274 10.7786 57.83 8.4297 57.5992 8.37502C57.4743 8.3568 57.3474 8.3568 57.2225 8.37502L51.3968 9.40775C51.1618 9.44831 50.944 9.55711 50.7705 9.72058C50.5969 9.88405 50.4753 10.095 50.4208 10.3271L49.8457 12.6679C48.8483 12.29 47.8285 11.9742 46.7921 11.7223C46.5869 11.6753 46.3732 11.6802 46.1704 11.7364C43.5906 12.4816 41.4462 13.6925 39.2431 15.6527C38.9859 15.8552 38.8381 16.3513 38.7064 16.6368L33.2249 4.6066C31.2688 0.905001 22.5899 5.30723 24.2382 8.74761L30.8031 22.9931H30.2867C29.704 22.9942 29.1455 23.2263 28.7336 23.6385C28.3218 24.0507 28.0902 24.6095 28.0897 25.1922V27.5553H25.2547C24.9325 27.5553 24.6235 27.6833 24.3956 27.9112C24.1678 28.139 24.0398 28.448 24.0398 28.7703V33.6625C24.0398 33.9848 24.1678 34.2938 24.3956 34.5216C24.6235 34.7495 24.9325 34.8775 25.2547 34.8775H26.3786L30.5601 40.5595L31.6171 82.0709C31.1853 82.0545 30.7545 82.1255 30.3508 82.2796C29.947 82.4336 29.5785 82.6676 29.2672 82.9675C28.956 83.2673 28.7085 83.6269 28.5396 84.0247C28.3707 84.4225 28.2837 84.8503 28.2841 85.2824V94.6681C28.2863 95.1567 28.3994 95.6384 28.615 96.077C28.8305 96.5155 29.1428 96.8994 29.5283 97.1997C29.9137 97.4999 30.3624 97.7088 30.8403 97.8104C31.3183 97.9121 31.8131 97.9039 32.2874 97.7865C32.6029 98.581 33.1505 99.262 33.8589 99.7407C34.5672 100.219 35.4034 100.473 36.2583 100.47H68.7344C69.5892 100.473 70.4254 100.219 71.1338 99.7407C71.8421 99.262 72.3898 98.581 72.7053 97.7865C73.1796 97.9043 73.6745 97.9128 74.1527 97.8113C74.6308 97.7098 75.0796 97.501 75.4652 97.2006C75.8507 96.9003 76.163 96.5162 76.3784 96.0775C76.5939 95.6388 76.7067 95.1568 76.7086 94.6681V85.2784C76.7089 84.8462 76.622 84.4184 76.453 84.0206C76.2841 83.6229 76.0366 83.2633 75.7254 82.9634C75.4142 82.6635 75.0457 82.4296 74.6419 82.2755C74.2381 82.1215 73.8074 82.0505 73.3755 82.0668L74.4325 40.5555L78.6222 34.8775H79.748C80.0703 34.8775 80.3793 34.7495 80.6071 34.5216C80.835 34.2938 80.963 33.9848 80.963 33.6625V28.7703C80.963 28.61 80.9313 28.4514 80.8697 28.3034C80.8082 28.1555 80.718 28.0212 80.6043 27.9083C80.4906 27.7954 80.3557 27.706 80.2074 27.6455C80.059 27.5849 79.9002 27.5542 79.7399 27.5553ZM71.8244 22.9931H65.4296C65.9065 21.6279 66.1953 20.2041 66.2882 18.761C66.2955 18.5868 66.2653 18.413 66.1995 18.2516C66.1337 18.0901 66.0339 17.9447 65.9069 17.8252C65.78 17.7057 65.6287 17.615 65.4636 17.5591C65.2984 17.5032 65.1232 17.4836 64.9497 17.5015C62.1027 17.793 59.6849 17.056 57.1577 15.9584L57.9353 12.6821L59.286 14.8265C59.3774 14.9721 59.4986 15.0967 59.6417 15.192C59.7849 15.2873 59.9466 15.3512 60.1162 15.3793L72.6283 17.4367C72.6303 17.6452 71.6442 22.9526 71.8244 22.9931ZM61.0517 13.0709L59.8368 11.1553L74.0114 13.16L75.4896 15.4482L61.0517 13.0709ZM52.5915 11.6757L55.8132 11.1046L54.908 14.9217C53.9826 14.4802 53.0674 14.0388 52.1156 13.6115L52.5915 11.6757ZM44.6274 14.9156C44.4283 15.5069 44.1923 16.0852 43.9207 16.6469L42.5316 16.1447C43.1943 15.6749 43.8954 15.2617 44.6274 14.9095V14.9156ZM40.7334 18.0725L43.9268 19.2247C45.6986 19.8058 46.6807 16.489 47.357 14.3891C53.0451 16.0678 57.5769 19.9982 63.7064 19.9962C63.5345 21.0286 63.2338 22.0354 62.8114 22.9931H57.5465L58.0528 21.2314C58.4476 19.6722 56.206 19.0323 55.716 20.5611L55.0194 22.9911H53.4116L54.2358 20.1157C54.6407 18.5585 52.389 17.9166 51.901 19.4474L50.8885 22.9911H49.2807L50.4228 19.004C50.8176 17.4468 48.5781 16.8049 48.088 18.3337L46.7961 22.8412C46.7826 22.8906 46.7718 22.9406 46.7637 22.9911H41.4604C41.4684 22.8029 41.4316 22.6155 41.3531 22.4443L40.0672 19.6236L40.7334 18.0725ZM27.5389 10.1043C29.0738 9.95651 31.0157 9.05945 32.1051 8.01053L33.1419 10.2825C33.1804 14.3506 33.1763 16.655 31.9938 19.7694L27.5389 10.1043ZM33.4659 22.9931C33.4415 22.9036 33.4083 22.8168 33.3667 22.7339C34.7234 19.899 35.2661 17.7282 35.4706 15.3793L38.9332 22.9931H33.4659ZM28.4947 6.15973C29.6165 5.64337 30.5196 5.5968 30.9246 5.6697C30.3171 6.77532 27.79 7.93359 26.5568 7.68249C26.7512 7.33218 27.3708 6.68217 28.4947 6.15973ZM30.5196 25.423H74.4811V27.5553H30.5196V25.423ZM26.4697 29.9852H78.5108V32.4476H26.4697V29.9852ZM29.3978 34.8775H30.4103L30.4467 36.3132L29.3978 34.8775ZM70.5771 96.2333C70.567 96.7162 70.3675 97.1758 70.0216 97.5129C69.6758 97.8501 69.2113 98.0378 68.7283 98.0355H36.2664C35.7834 98.0378 35.3189 97.8501 34.973 97.5129C34.6272 97.1758 34.4277 96.7162 34.4176 96.2333L32.8544 34.8775H43.131V38.0688C43.131 38.391 43.259 38.7001 43.4868 38.9279C43.7147 39.1558 44.0237 39.2838 44.3459 39.2838C44.6681 39.2838 44.9772 39.1558 45.205 38.9279C45.4329 38.7001 45.5609 38.391 45.5609 38.0688V34.8775H59.4399V38.0688C59.4399 38.391 59.5679 38.7001 59.7957 38.9279C60.0236 39.1558 60.3326 39.2838 60.6548 39.2838C60.9771 39.2838 61.2861 39.1558 61.5139 38.9279C61.7418 38.7001 61.8698 38.391 61.8698 38.0688V34.8775H72.1423L70.5771 96.2333ZM74.5358 36.3132L74.5723 34.8775H75.5847L74.5358 36.3132Z" fill="black"/>
</svg>
