<svg width="100" height="100" viewBox="0 0 100 100" fill="none" xmlns="http://www.w3.org/2000/svg">
<circle cx="50" cy="50" r="50" fill="#DAE3EA"/>
<g clip-path="url(#clip0_508_7645)">
<path d="M65.7986 43.1953L65.0205 43.4069C59.6962 44.7856 55.9215 40.7655 55.7645 40.6017C55.4437 40.2537 54.9522 40.124 54.5085 40.2673L37.4642 45.8913C34.7816 46.7376 32.9795 49.1946 32.9795 52.0066V53.8221C32.9795 55.7946 34.5836 57.3985 36.5563 57.3985H65.7918C67.7645 57.3985 69.3686 55.7946 69.3686 53.8221V45.939C69.3686 45.0518 68.9659 44.2259 68.256 43.6867C67.5461 43.1475 66.6519 42.9701 65.7918 43.2021L65.7986 43.1953ZM66.9864 53.8153C66.9864 54.4705 66.4539 55.0029 65.7986 55.0029H36.5631C35.9079 55.0029 35.3754 54.4705 35.3754 53.8153V51.9998C35.3754 50.2389 36.5085 48.6964 38.2014 48.1572L43.8601 46.2939L44.3311 47.6385C44.5017 48.1299 44.9659 48.4371 45.4573 48.4371C45.587 48.4371 45.7236 48.4166 45.8532 48.3688C46.4744 48.1504 46.802 47.4679 46.5836 46.8468L46.1263 45.5432L49.4437 44.4511L50.0785 45.9663C50.2696 46.4236 50.7133 46.6966 51.1843 46.6966C51.3413 46.6966 51.4915 46.6693 51.6485 46.6011C52.256 46.3485 52.5427 45.6456 52.2901 45.0381L51.7236 43.6935L54.5768 42.7517C56.0375 44.0689 60.1536 47.1334 65.6416 45.7002L66.4266 45.4886C66.6109 45.4408 66.7474 45.5159 66.8157 45.5636C66.884 45.6114 66.9932 45.7275 66.9932 45.9186V53.8017L66.9864 53.8153Z" fill="#232F45"/>
<path d="M80.9522 48.3074C80.9181 47.6521 80.3447 47.1471 79.6962 47.1812C79.0341 47.2153 78.5358 47.7818 78.57 48.437C79.3413 62.3331 70.0512 74.7072 56.4676 77.8604C43.6689 80.8294 30.6724 74.7618 24.686 63.3091L31.5666 64.7902C32.2082 64.9267 32.843 64.5172 32.9863 63.8756C33.1229 63.2272 32.7133 62.5925 32.0717 62.456L22.8225 60.4698C22.7611 60.4562 22.6928 60.4494 22.6314 60.4494C22.6177 60.4494 22.5973 60.4494 22.5836 60.4494C22.5631 60.4494 22.5427 60.4494 22.5222 60.4494C22.2969 60.463 22.0853 60.5313 21.9079 60.6541C21.9079 60.6541 21.8942 60.6609 21.8874 60.6678C21.8328 60.7087 21.7782 60.7497 21.7304 60.8043C21.7304 60.8043 21.7167 60.8179 21.7167 60.8247C21.6689 60.8725 21.628 60.9271 21.587 60.9886V60.9954C21.5119 61.1114 21.4505 61.2411 21.4232 61.3844L19.4369 70.6325C19.3003 71.2809 19.7099 71.9157 20.3515 72.0522C20.4334 72.0727 20.5222 72.0795 20.6041 72.0795C21.157 72.0795 21.6485 71.6973 21.7713 71.1376L23.041 65.2475C28.5495 75.0553 38.8976 81 49.9761 81C52.3106 81 54.6724 80.7338 57.0341 80.1878C71.7509 76.7752 81.8191 63.3705 80.9795 48.3074H80.9522Z" fill="#232F45"/>
<path d="M20.2423 52.8188C20.2423 52.8188 20.2901 52.8188 20.3106 52.8188C20.9727 52.7847 21.471 52.2182 21.4369 51.563C20.6587 37.66 29.9556 25.286 43.5392 22.1396C56.3447 19.1638 69.3345 25.2382 75.3208 36.6909L68.4334 35.2098C67.785 35.0733 67.1502 35.4828 67.0136 36.1244C66.8771 36.7728 67.2867 37.4075 67.9283 37.544L77.1775 39.537C77.2594 39.5574 77.3481 39.5643 77.43 39.5643C77.4437 39.5643 77.4642 39.5643 77.4778 39.5643C77.5597 39.5643 77.6348 39.5506 77.7167 39.5301C77.7508 39.5233 77.785 39.5097 77.8191 39.496C77.8464 39.4892 77.8669 39.4824 77.8942 39.4755C77.942 39.4551 77.9829 39.4278 78.0239 39.4073C78.0375 39.4005 78.058 39.3936 78.0785 39.38C78.0785 39.38 78.0921 39.3663 78.099 39.3663C78.1263 39.3527 78.1399 39.3322 78.1672 39.3117C78.2082 39.2844 78.2423 39.2503 78.2764 39.2162C78.2969 39.1957 78.3174 39.1684 78.3379 39.1411C78.3652 39.107 78.3993 39.0729 78.4198 39.0387C78.4403 39.0114 78.4539 38.9773 78.4676 38.95C78.4881 38.9159 78.5085 38.8749 78.529 38.8408C78.5427 38.8067 78.5563 38.7657 78.5631 38.7248C78.57 38.6906 78.5836 38.6633 78.5904 38.6292L80.5768 29.3811C80.7133 28.7327 80.3038 28.098 79.6621 27.9615C79.0205 27.825 78.3857 28.2345 78.2423 28.876L76.9727 34.773C70.3174 22.8903 56.5631 16.6658 43 19.8122C28.2833 23.2248 18.2082 36.6294 19.0478 51.6926C19.0819 52.3274 19.6075 52.8188 20.2423 52.8188Z" fill="#232F45"/>
</g>
<defs>
<clipPath id="clip0_508_7645">
<rect width="62" height="62" fill="white" transform="translate(19 19)"/>
</clipPath>
</defs>
</svg>
