<svg width="100" height="100" viewBox="0 0 100 100" fill="none" xmlns="http://www.w3.org/2000/svg">
<circle cx="50" cy="50" r="50" fill="#DAE3EA"/>
<g clip-path="url(#clip0_508_7646)">
<path d="M72.1705 34.2462C67.2049 27.206 59.1047 23 50.5 23C41.8953 23 33.7951 27.206 28.8295 34.2462C25.6722 38.7186 24 43.9959 24 49.5C24 55.0041 25.6722 60.2814 28.8295 64.7538C28.8295 64.7595 28.8409 64.7708 28.8465 64.7765C28.8465 64.7765 28.8465 64.7765 28.8465 64.7821C33.8121 71.8053 41.901 76 50.4943 76C59.0877 76 67.1993 71.794 72.1648 64.7538C75.3221 60.2814 76.9943 55.0041 76.9943 49.5C76.9943 43.9959 75.3221 38.7186 72.1648 34.2462H72.1705ZM74.9934 48.508H63.7188C63.6508 44.6591 63.1973 41.0483 62.4207 37.8173C65.6064 37.3752 68.503 36.763 70.9518 35.9921C73.4289 39.7219 74.812 44.0186 74.9934 48.508ZM69.7217 34.2916C67.4487 34.9604 64.8015 35.4989 61.9049 35.8901C60.6182 31.5027 58.7193 27.9712 56.4235 25.7209C61.6385 27.0246 66.332 30.0175 69.7217 34.2972V34.2916ZM39.2595 48.508C39.3332 44.7725 39.8093 41.2241 40.5916 38.0667C43.7205 38.4125 47.0649 38.5996 50.4943 38.5996C53.9237 38.5996 57.2681 38.4125 60.3971 38.0667C61.185 41.2241 61.6612 44.7725 61.7349 48.508H39.2651H39.2595ZM61.7292 50.492C61.6555 54.2275 61.1794 57.7759 60.3914 60.9333C57.2625 60.5875 53.9124 60.4004 50.4887 60.4004C47.0649 60.4004 43.7149 60.5875 40.5859 60.9333C39.798 57.7759 39.3218 54.2275 39.2538 50.492H61.7235H61.7292ZM50.5 24.984C54.3545 24.984 57.8293 29.4734 59.8643 36.1281C56.9053 36.4456 53.7424 36.6156 50.5 36.6156C47.2576 36.6156 44.0947 36.4456 41.1357 36.1338C43.1707 29.4734 46.6455 24.9896 50.5 24.9896V24.984ZM44.5765 25.7152C42.2807 27.9656 40.3818 31.5027 39.0951 35.8844C36.1985 35.4933 33.5513 34.9548 31.2783 34.2859C34.668 30.0062 39.3615 27.0133 44.5765 25.7095V25.7152ZM30.0426 35.9921C32.4913 36.763 35.3936 37.3809 38.5793 37.8173C37.8027 41.0483 37.3492 44.6648 37.2812 48.508H26.0066C26.1824 44.0186 27.5711 39.7219 30.0482 35.9921H30.0426ZM26.001 50.492H37.2755C37.3435 54.3409 37.797 57.9517 38.5736 61.1827C35.3879 61.6248 32.4913 62.237 30.0369 63.0079C27.5598 59.2781 26.1767 54.9814 25.9953 50.492H26.001ZM31.2726 64.7085C33.5457 64.0396 36.1928 63.5011 39.0894 63.11C40.3762 67.4973 42.2751 71.0288 44.5708 73.2791C39.3558 71.9754 34.6624 68.9825 31.2726 64.7028V64.7085ZM50.4943 74.016C46.6398 74.016 43.165 69.5266 41.1301 62.8719C44.089 62.5544 47.252 62.3901 50.4943 62.3901C53.7367 62.3901 56.8997 62.5601 59.8586 62.8775C57.8236 69.5323 54.3489 74.0217 50.4943 74.0217V74.016ZM56.4179 73.2848C58.7136 71.0344 60.6125 67.4973 61.8993 63.1156C64.7958 63.5067 67.443 64.0452 69.716 64.7141C66.3263 68.9938 61.6328 71.9867 56.4179 73.2905V73.2848ZM70.9518 63.0079C68.503 62.237 65.6007 61.6191 62.4207 61.1827C63.1973 57.9517 63.6508 54.3352 63.7188 50.492H74.9934C74.8176 54.9814 73.4289 59.2781 70.9518 63.0079Z" fill="#232F45"/>
</g>
<defs>
<clipPath id="clip0_508_7646">
<rect width="53" height="53" fill="white" transform="translate(24 23)"/>
</clipPath>
</defs>
</svg>
