<svg width="100" height="100" viewBox="0 0 100 100" fill="none" xmlns="http://www.w3.org/2000/svg">
<circle cx="50" cy="50" r="50" fill="#DAE3EA"/>
<g clip-path="url(#clip0_508_7606)">
<path d="M72.9583 60.4704H51.6002C51.2828 60.4704 50.9786 60.603 50.7604 60.8285C50.5422 61.0605 50.4298 61.3656 50.443 61.6839C50.4893 62.6321 50.529 63.5737 50.5621 64.5219L50.6546 67.6783C50.8728 75.1448 55.9049 80.9934 62.1139 80.9934C68.323 80.9934 72.912 75.6753 73.5203 68.6199L74.1155 61.7236C74.1419 61.3987 74.0361 61.0804 73.8179 60.8417C73.5997 60.603 73.2889 60.4637 72.9649 60.4637L72.9583 60.4704ZM71.2126 68.4276C70.7101 74.2762 66.7955 78.6791 62.1139 78.6791C57.1679 78.6791 53.1541 73.8186 52.969 67.6186L52.8764 64.4622C52.8632 63.9052 52.8367 63.3482 52.8169 62.7912H71.7019L71.2126 68.4276Z" fill="#232F45"/>
<path d="M61.1551 19.073C57.439 18.6486 53.8881 20.0809 51.1572 23.1046C47.5997 27.0368 46.145 32.9848 47.355 38.6146L47.5534 39.5297C48.6974 44.8743 49.5371 50.4178 50.0463 55.9945C50.0992 56.5913 50.6017 57.0488 51.1968 57.0488H73.4608C74.0626 57.0488 74.5585 56.5913 74.6114 55.9878L75.914 40.889C76.853 29.8948 70.2406 20.1074 61.1551 19.073ZM73.5997 40.6901L72.3896 54.7279H52.2416C51.7192 49.4165 50.8993 44.1448 49.8082 39.039L49.6099 38.1239C48.5585 33.2103 49.8016 28.0514 52.8698 24.6563C55.0849 22.2028 57.9349 21.0358 60.8906 21.3739C68.7396 22.2691 74.4395 30.9292 73.5997 40.6835V40.6901Z" fill="#232F45"/>
<path d="M35.1551 19H27.9013C25.7457 19 24 20.7572 24 22.9123V76.8954C24 79.0505 25.7457 80.8077 27.9013 80.8077H35.1617C37.3108 80.8077 39.0631 79.0505 39.0631 76.8954V22.9123C39.0565 20.7572 37.3042 19 35.1551 19ZM35.1551 78.4802H27.9013C27.0285 78.4802 26.3143 77.7707 26.3143 76.8888V22.9123C26.3143 22.037 27.0219 21.3209 27.9013 21.3209H35.1617C36.0346 21.3209 36.7487 22.0304 36.7487 22.9123V23.6948H34.527C33.8856 23.6948 33.3698 24.212 33.3698 24.8552C33.3698 25.4984 33.8856 26.0156 34.527 26.0156H36.7487V28.7078H34.527C33.8856 28.7078 33.3698 29.225 33.3698 29.8682C33.3698 30.5114 33.8856 31.0287 34.527 31.0287H36.7487V33.7209H32.2854C31.6439 33.7209 31.1282 34.2381 31.1282 34.8813C31.1282 35.5245 31.6439 36.0417 32.2854 36.0417H36.7487V38.7339H34.527C33.8856 38.7339 33.3698 39.2511 33.3698 39.8943C33.3698 40.5375 33.8856 41.0548 34.527 41.0548H36.7487V43.747H34.527C33.8856 43.747 33.3698 44.2642 33.3698 44.9074C33.3698 45.5506 33.8856 46.0678 34.527 46.0678H36.7487V48.76H34.527C33.8856 48.76 33.3698 49.2772 33.3698 49.9204C33.3698 50.5636 33.8856 51.0809 34.527 51.0809H36.7487V53.773H32.2854C31.6439 53.773 31.1282 54.2903 31.1282 54.9335C31.1282 55.5767 31.6439 56.0939 32.2854 56.0939H36.7487V58.7861H34.527C33.8856 58.7861 33.3698 59.3033 33.3698 59.9465C33.3698 60.5897 33.8856 61.107 34.527 61.107H36.7487V63.7991H34.527C33.8856 63.7991 33.3698 64.3164 33.3698 64.9596C33.3698 65.6028 33.8856 66.12 34.527 66.12H36.7487V68.8122H34.527C33.8856 68.8122 33.3698 69.3294 33.3698 69.9726C33.3698 70.6158 33.8856 71.133 34.527 71.133H36.7487V73.8252H32.2854C31.6439 73.8252 31.1282 74.3425 31.1282 74.9857C31.1282 75.6289 31.6439 76.1461 32.2854 76.1461H36.7487V76.9286C36.7487 77.8039 36.0412 78.52 35.1617 78.52L35.1551 78.4802Z" fill="#232F45"/>
</g>
<defs>
<clipPath id="clip0_508_7606">
<rect width="52" height="62" fill="white" transform="translate(24 19)"/>
</clipPath>
</defs>
</svg>
