<svg width="238" height="38" viewBox="0 0 238 38" fill="none" xmlns="http://www.w3.org/2000/svg">
<path d="M8.84162 33.9116V33.4851C7.4596 33.4851 6.47272 32.6978 7.06544 31.2869L9.23677 26.0699H18.7114L20.5869 30.631C21.2444 32.2056 21.1462 33.4861 19.4358 33.4861H18.5472V33.9126H27.7919V33.4861C26.1474 33.4861 25.1271 32.7645 24.2061 30.5986L15.5532 9.9895H9.79606V10.416C11.1122 10.416 12.2967 10.7445 12.8226 12.0563L13.7436 14.2878L6.572 31.4173C6.07856 32.5988 4.79581 33.4851 3.70966 33.4851V33.9116H8.84162ZM13.9736 14.781L18.5138 25.6424H9.43434L13.9746 14.781H13.9736Z" fill="black"/>
<mask id="mask0_2103_1121" style="mask-type:luminance" maskUnits="userSpaceOnUse" x="0" y="23" width="27" height="15">
<path d="M26.4147 23.4482H0.553406V37.655H26.4147V23.4482Z" fill="white"/>
</mask>
<g mask="url(#mask0_2103_1121)">
<path d="M21.9181 31.2801C22.0753 31.3262 22.2385 31.3615 22.4036 31.385C22.5668 31.4076 22.7329 31.4203 22.901 31.4203C23.8702 31.4203 24.747 31.0281 25.382 30.3948C26.0169 29.7614 26.4101 28.8858 26.4101 27.9181C26.4101 26.9504 26.0169 26.0749 25.382 25.4415C24.747 24.8081 23.8692 24.416 22.901 24.416C22.3623 24.416 21.8522 24.5375 21.3951 24.7542C20.9213 24.9797 20.5056 25.3072 20.1782 25.7092C19.1855 26.9102 18.3765 28.1701 17.5685 29.429C15.9034 32.0233 14.2393 34.6146 10.9887 36.6383C10.6918 36.8001 10.3812 36.9403 10.0598 37.0579C9.31569 37.3305 8.51066 37.4785 7.6722 37.4785C5.75545 37.4785 4.02055 36.703 2.76435 35.45C1.50814 34.196 0.731612 32.4645 0.731612 30.5516C0.731612 28.6388 1.50814 26.9073 2.76435 25.6533C3.95273 24.4679 5.56869 23.71 7.36257 23.6316C7.22103 23.7336 7.12961 23.8993 7.12961 24.0865C7.12961 24.3963 7.38125 24.6473 7.69186 24.6473C8.00247 24.6473 8.25411 24.3963 8.25411 24.0865C8.25411 23.8169 8.06341 23.5914 7.80981 23.5375V23.4492L7.67318 23.4473C5.70827 23.4473 3.92816 24.2424 2.6405 25.5278C1.35283 26.8132 0.555664 28.5888 0.555664 30.5507C0.555664 32.5125 1.35185 34.2881 2.6405 35.5735C3.92816 36.8589 5.70729 37.654 7.67318 37.654C8.53326 37.654 9.35796 37.5011 10.1217 37.2226C10.913 36.9334 11.6394 36.5069 12.2704 35.9735C14.7966 34.0724 16.2563 31.7998 17.7179 29.5231C18.5239 28.2672 19.3309 27.0102 20.3159 25.819L20.248 25.7631L20.3168 25.819C20.6284 25.4376 21.0226 25.1258 21.4728 24.9121C21.9063 24.7062 22.3909 24.5915 22.903 24.5915C23.823 24.5915 24.6565 24.964 25.2591 25.566C25.8616 26.168 26.2352 26.9994 26.2352 27.9172C26.2352 28.8349 25.8626 29.6673 25.2591 30.2693C24.6565 30.8713 23.823 31.2429 22.903 31.2429C22.7418 31.2429 22.5835 31.2311 22.4302 31.2095C22.2719 31.187 22.1186 31.1536 21.9692 31.1105L21.92 31.2801H21.9181Z" fill="black"/>
</g>
<path d="M0 0.344971V0.755781C1.70934 0.755781 2.15167 1.13424 2.84858 2.61864L13.0712 23.7386L13.546 23.3601L20.8247 2.64904C21.3309 1.13326 21.964 0.7548 23.7362 0.7548V0.344971H18.5777V0.755781C20.5711 0.755781 20.8876 1.26071 20.4129 2.61864L14.6528 19.003L6.5828 2.36569C5.91832 0.945008 6.64571 0.724406 8.7669 0.724406V0.344971H0Z" fill="black"/>
<path d="M43.1945 19.6979L44.6876 22.8942H46.1965L41.1244 12.0298H40.346L35.7408 22.8942H36.4574L37.8257 19.6979H43.1955H43.1945ZM42.8672 18.9988H38.1225L40.3627 13.7681H40.4246L42.8672 18.9988Z" fill="black"/>
<path d="M60.4207 12.0308V20.3342H60.3568L51.7216 11.8455H51.6439V22.8962H52.3585V14.5927H52.4224L61.0576 23.0815H61.1353V12.0308H60.4207Z" fill="black"/>
<path d="M72.0126 22.8952V12.8838H76.1842V12.0298H66.4265V12.8838H70.5981V22.8942H72.0136L72.0126 22.8952Z" fill="black"/>
<path d="M80.3843 17.4615C80.3843 18.0419 80.4954 18.6606 80.7185 19.3185C80.9427 19.9754 81.2926 20.5833 81.7693 21.1421C82.247 21.701 82.8535 22.1638 83.5897 22.5314C84.3269 22.8971 85.2086 23.0805 86.2358 23.0805C86.9308 23.0805 87.5608 22.9952 88.126 22.8256C88.6922 22.654 89.2014 22.4246 89.6516 22.1353C90.1027 21.8451 90.4949 21.5118 90.8272 21.1343C91.1594 20.7558 91.4317 20.3578 91.644 19.9391C91.8573 19.5195 92.0175 19.0989 92.1256 18.6743C92.2347 18.2498 92.2898 17.8449 92.2898 17.4605C92.2898 16.8821 92.1699 16.2644 91.931 15.6075C91.6931 14.9496 91.3255 14.3417 90.8272 13.7838C90.3288 13.224 89.6978 12.7612 88.935 12.3945C88.1732 12.0269 87.2728 11.8425 86.2358 11.8425C85.1988 11.8425 84.3269 12.0239 83.5897 12.3857C82.8535 12.7465 82.247 13.2044 81.7693 13.7583C81.2926 14.3133 80.9427 14.9202 80.7185 15.582C80.4954 16.2438 80.3843 16.8703 80.3843 17.4595V17.4615ZM81.9099 17.4615C81.9099 16.737 82.0209 16.0722 82.2441 15.4682C82.4662 14.8623 82.7729 14.3427 83.1612 13.9074C83.5504 13.473 84.0094 13.1348 84.5373 12.8926C85.0671 12.6494 85.6431 12.5269 86.2653 12.5269C86.8875 12.5269 87.4576 12.6485 88.0022 12.8926C88.5467 13.1348 89.0244 13.474 89.4333 13.9074C89.8432 14.3417 90.1666 14.8623 90.4045 15.4682C90.6434 16.0732 90.7633 16.7379 90.7633 17.4615C90.7633 18.1851 90.6434 18.8518 90.4045 19.4567C90.1666 20.0617 89.8432 20.5813 89.4333 21.0176C89.0235 21.452 88.5467 21.7912 88.0022 22.0353C87.4576 22.2775 86.8787 22.3991 86.2653 22.3991C85.652 22.3991 85.0661 22.2785 84.5373 22.0353C84.0085 21.7922 83.5504 21.4529 83.1612 21.0176C82.7719 20.5823 82.4662 20.0617 82.2441 19.4567C82.0209 18.8508 81.9099 18.1861 81.9099 17.4615Z" fill="black"/>
<path d="M106.823 12.0308V20.3342H106.759L98.1236 11.8455H98.0459V22.8962H98.7605V14.5927H98.8244L107.46 23.0815H107.537V12.0308H106.823Z" fill="black"/>
<path d="M115.008 12.031V22.8954H116.423V12.031H115.008Z" fill="black"/>
<path d="M122.803 17.4615C122.803 18.0419 122.915 18.6606 123.138 19.3185C123.362 19.9754 123.712 20.5833 124.188 21.1421C124.666 21.701 125.273 22.1638 126.009 22.5314C126.746 22.8971 127.628 23.0805 128.655 23.0805C129.35 23.0805 129.98 22.9952 130.545 22.8256C131.111 22.654 131.621 22.4246 132.071 22.1353C132.522 21.8451 132.914 21.5118 133.246 21.1343C133.579 20.7558 133.851 20.3578 134.063 19.9391C134.276 19.5195 134.437 19.0989 134.545 18.6743C134.654 18.2498 134.709 17.8449 134.709 17.4605C134.709 16.8821 134.589 16.2644 134.35 15.6075C134.112 14.9496 133.745 14.3417 133.246 13.7838C132.748 13.224 132.117 12.7612 131.354 12.3945C130.592 12.0269 129.692 11.8425 128.655 11.8425C127.618 11.8425 126.746 12.0239 126.009 12.3857C125.273 12.7465 124.666 13.2044 124.188 13.7583C123.712 14.3133 123.362 14.9202 123.138 15.582C122.915 16.2438 122.803 16.8703 122.803 17.4595V17.4615ZM124.329 17.4615C124.329 16.737 124.44 16.0722 124.663 15.4682C124.885 14.8623 125.192 14.3427 125.58 13.9074C125.97 13.473 126.429 13.1348 126.956 12.8926C127.486 12.6494 128.062 12.5269 128.684 12.5269C129.307 12.5269 129.877 12.6485 130.421 12.8926C130.966 13.1348 131.444 13.474 131.852 13.9074C132.262 14.3417 132.586 14.8623 132.824 15.4682C133.062 16.0732 133.182 16.7379 133.182 17.4615C133.182 18.1851 133.062 18.8518 132.824 19.4567C132.586 20.0617 132.262 20.5813 131.852 21.0176C131.443 21.452 130.966 21.7912 130.421 22.0353C129.877 22.2775 129.298 22.3991 128.684 22.3991C128.071 22.3991 127.485 22.2785 126.956 22.0353C126.428 21.7922 125.97 21.4529 125.58 21.0176C125.191 20.5823 124.885 20.0617 124.663 19.4567C124.44 18.8508 124.329 18.1861 124.329 17.4615Z" fill="black"/>
<path d="M147.623 12.031L152.182 22.8954H153.116L157.537 12.031H156.726L153.101 20.9718H153.037L149.304 12.031H147.623Z" fill="black"/>
<path d="M162.981 12.0308V22.8952H170.015V22.0412H164.396V17.4939H169.22V16.7791H164.396V12.8838H170.015V12.0298H162.981V12.0308Z" fill="black"/>
<path d="M184.239 12.0308V20.3342H184.175L175.54 11.8455H175.462V22.8962H176.177V14.5927H176.24L184.876 23.0815H184.953V12.0308H184.239Z" fill="black"/>
<path d="M191.178 12.031V18.704C191.178 19.1285 191.22 19.5972 191.303 20.109C191.386 20.6208 191.582 21.0973 191.893 21.5365C192.204 21.9767 192.665 22.3444 193.277 22.6395C193.889 22.9337 194.725 23.0807 195.783 23.0807C196.448 23.0807 197.038 22.9768 197.551 22.7699C198.064 22.563 198.493 22.2787 198.841 21.9159C199.189 21.5542 199.452 21.1326 199.628 20.6512C199.804 20.1707 199.892 19.656 199.892 19.1069V12.031H199.208V18.5961C199.208 18.8236 199.202 19.054 199.191 19.2864C199.181 19.5197 199.151 19.7521 199.099 19.9854C199.047 20.2188 198.966 20.4492 198.857 20.6776C198.748 20.9051 198.59 21.1326 198.382 21.36C198.01 21.763 197.59 22.0375 197.123 22.1836C196.656 22.3277 196.168 22.4003 195.659 22.4003C195.223 22.4003 194.837 22.3326 194.5 22.1983C194.162 22.063 193.843 21.862 193.543 21.5934C193.304 21.3865 193.122 21.1796 192.999 20.9727C192.874 20.7659 192.78 20.5619 192.719 20.36C192.657 20.157 192.621 19.9521 192.61 19.7452C192.6 19.5383 192.594 19.3315 192.594 19.1246V12.031H191.178Z" fill="black"/>
<path d="M215.282 20.8933C214.223 21.8865 212.968 22.3827 211.516 22.3827C210.706 22.3827 209.991 22.2434 209.369 21.964C208.746 21.6856 208.227 21.312 207.813 20.8463C207.398 20.3806 207.083 19.8433 206.871 19.2325C206.659 18.6216 206.553 17.9843 206.553 17.3225C206.553 16.6186 206.664 15.9744 206.888 15.3901C207.11 14.8057 207.423 14.3018 207.827 13.8762C208.233 13.4517 208.713 13.1203 209.267 12.883C209.823 12.6448 210.427 12.5252 211.082 12.5252C211.528 12.5252 211.935 12.5771 212.303 12.6801C212.671 12.784 212.998 12.9183 213.284 13.085C213.569 13.2497 213.803 13.438 213.984 13.6507C214.165 13.8635 214.293 14.0772 214.366 14.2939H215.519C215.364 13.9429 215.163 13.6174 214.919 13.3174C214.676 13.0164 214.373 12.7575 214.01 12.5409C213.646 12.3232 213.221 12.1526 212.732 12.0281C212.245 11.9045 211.69 11.8418 211.067 11.8418C210.165 11.8418 209.343 11.9712 208.602 12.2301C207.861 12.4879 207.225 12.8575 206.695 13.3389C206.165 13.8204 205.755 14.3988 205.464 15.0773C205.174 15.7558 205.03 16.5137 205.03 17.351C205.03 18.0755 205.147 18.7824 205.38 19.4717C205.614 20.16 205.973 20.7698 206.461 21.3022C206.949 21.8346 207.571 22.264 208.329 22.5915C209.086 22.917 209.989 23.0798 211.036 23.0798C211.699 23.0798 212.293 23.017 212.818 22.8935C213.342 22.7699 213.799 22.617 214.188 22.4356C214.577 22.2552 214.902 22.0611 215.161 21.8532C215.421 21.6463 215.618 21.4649 215.753 21.31L215.286 20.8914L215.282 20.8933Z" fill="black"/>
<path d="M230.205 20.8933C229.147 21.8865 227.891 22.3827 226.44 22.3827C225.63 22.3827 224.914 22.2434 224.292 21.964C223.67 21.6856 223.151 21.312 222.736 20.8463C222.321 20.3806 222.006 19.8433 221.794 19.2325C221.582 18.6216 221.477 17.9843 221.477 17.3225C221.477 16.6186 221.588 15.9744 221.811 15.3901C222.033 14.8057 222.347 14.3018 222.751 13.8762C223.156 13.4517 223.636 13.1203 224.191 12.883C224.746 12.6448 225.35 12.5252 226.005 12.5252C226.451 12.5252 226.858 12.5771 227.226 12.6801C227.594 12.784 227.921 12.9183 228.207 13.085C228.492 13.2497 228.726 13.438 228.908 13.6507C229.089 13.8635 229.216 14.0772 229.289 14.2939H230.442C230.287 13.9429 230.086 13.6174 229.843 13.3174C229.6 13.0164 229.296 12.7575 228.933 12.5409C228.57 12.3232 228.144 12.1526 227.655 12.0281C227.168 11.9045 226.614 11.8418 225.99 11.8418C225.088 11.8418 224.266 11.9712 223.525 12.2301C222.784 12.4879 222.148 12.8575 221.618 13.3389C221.088 13.8204 220.678 14.3988 220.388 15.0773C220.098 15.7558 219.953 16.5137 219.953 17.351C219.953 18.0755 220.07 18.7824 220.303 19.4717C220.537 20.16 220.897 20.7698 221.384 21.3022C221.872 21.8346 222.494 22.264 223.252 22.5915C224.01 22.917 224.912 23.0798 225.959 23.0798C226.622 23.0798 227.216 23.017 227.741 22.8935C228.265 22.7699 228.722 22.617 229.111 22.4356C229.5 22.2552 229.825 22.0611 230.084 21.8532C230.344 21.6463 230.541 21.4649 230.676 21.31L230.209 20.8914L230.205 20.8933Z" fill="black"/>
<path d="M236.584 12.031V22.8954H238V12.031H236.584Z" fill="black"/>
</svg>
