<svg width="24" height="25" viewBox="0 0 24 25" fill="none" xmlns="http://www.w3.org/2000/svg">
<path fill-rule="evenodd" clip-rule="evenodd" d="M16 3.27734H8C5.23858 3.27734 3 5.51592 3 8.27734V16.2773C3 19.0387 5.23858 21.2773 8 21.2773H16C18.7614 21.2773 21 19.0387 21 16.2773V8.27734C21 5.51592 18.7614 3.27734 16 3.27734ZM19.25 16.2773C19.2445 18.0699 17.7926 19.5218 16 19.5273H8C6.20735 19.5218 4.75549 18.0699 4.75 16.2773V8.27734C4.75549 6.48469 6.20735 5.03283 8 5.02734H16C17.7926 5.03283 19.2445 6.48469 19.25 8.27734V16.2773ZM16.75 8.52734C17.3023 8.52734 17.75 8.07962 17.75 7.52734C17.75 6.97506 17.3023 6.52734 16.75 6.52734C16.1977 6.52734 15.75 6.97506 15.75 7.52734C15.75 8.07962 16.1977 8.52734 16.75 8.52734ZM12 7.77734C9.51472 7.77734 7.5 9.79206 7.5 12.2773C7.5 14.7626 9.51472 16.7773 12 16.7773C14.4853 16.7773 16.5 14.7626 16.5 12.2773C16.5027 11.083 16.0294 9.93691 15.1849 9.09242C14.3404 8.24793 13.1943 7.77468 12 7.77734ZM9.25 12.2773C9.25 13.7961 10.4812 15.0273 12 15.0273C13.5188 15.0273 14.75 13.7961 14.75 12.2773C14.75 10.7585 13.5188 9.52734 12 9.52734C10.4812 9.52734 9.25 10.7585 9.25 12.2773Z" fill="black"/>
</svg>
