<svg width="24" height="25" viewBox="0 0 24 25" fill="none" xmlns="http://www.w3.org/2000/svg">
<path d="M20.9728 6.99475C20.5084 7.61427 19.947 8.15468 19.3103 8.59511C19.3103 8.75694 19.3103 8.91877 19.3103 9.0896C19.3154 12.0284 18.1415 14.8464 16.0518 16.9118C13.962 18.9772 11.1312 20.1172 8.19405 20.0762C6.49599 20.0819 4.81967 19.6942 3.29642 18.9434C3.21428 18.9075 3.16131 18.8263 3.16162 18.7366V18.6377C3.16162 18.5086 3.26623 18.404 3.39527 18.404C5.06442 18.3489 6.67402 17.7702 7.99634 16.7497C6.48553 16.7192 5.12619 15.8242 4.5006 14.448C4.46901 14.3729 4.47884 14.2866 4.52657 14.2205C4.57429 14.1544 4.653 14.118 4.73425 14.1244C5.19342 14.1705 5.65718 14.1278 6.1002 13.9985C4.43239 13.6523 3.17921 12.2677 2.99986 10.573C2.99349 10.4917 3.02992 10.413 3.096 10.3652C3.16207 10.3175 3.24824 10.3076 3.32338 10.3393C3.77094 10.5368 4.25409 10.6408 4.74324 10.6449C3.28184 9.68581 2.65061 7.8614 3.20655 6.20357C3.26394 6.04248 3.40181 5.92347 3.5695 5.89029C3.73718 5.8571 3.90996 5.91463 4.02432 6.04174C5.99639 8.1406 8.70604 9.39131 11.5819 9.53014C11.5083 9.2362 11.4721 8.93411 11.4741 8.63107C11.501 7.04207 12.4842 5.62656 13.9634 5.04722C15.4425 4.46789 17.1249 4.83938 18.223 5.98779C18.9714 5.8452 19.695 5.5938 20.3707 5.24156C20.4202 5.21066 20.483 5.21066 20.5325 5.24156C20.5634 5.29108 20.5634 5.35387 20.5325 5.40339C20.2052 6.15287 19.6523 6.78147 18.9509 7.20154C19.5651 7.13031 20.1685 6.98542 20.7482 6.76999C20.797 6.73677 20.8611 6.73677 20.9099 6.76999C20.9508 6.78869 20.9814 6.82446 20.9935 6.86777C21.0056 6.91108 20.998 6.95753 20.9728 6.99475Z" fill="black"/>
</svg>
