<svg width="24" height="25" viewBox="0 0 24 25" fill="none" xmlns="http://www.w3.org/2000/svg">
<path d="M16.5 6.27734H13.5C12.9477 6.27734 12.5 6.72506 12.5 7.27734V10.2773H16.5C16.6137 10.2748 16.7216 10.3277 16.7892 10.4192C16.8568 10.5107 16.8758 10.6293 16.84 10.7373L16.1 12.9373C16.0318 13.1392 15.8431 13.2757 15.63 13.2773H12.5V20.7773C12.5 21.0534 12.2761 21.2773 12 21.2773H9.5C9.22386 21.2773 9 21.0534 9 20.7773V13.2773H7.5C7.22386 13.2773 7 13.0534 7 12.7773V10.7773C7 10.5012 7.22386 10.2773 7.5 10.2773H9V7.27734C9 5.0682 10.7909 3.27734 13 3.27734H16.5C16.7761 3.27734 17 3.5012 17 3.77734V5.77734C17 6.05348 16.7761 6.27734 16.5 6.27734Z" fill="black"/>
</svg>
