<svg width="63" height="28" viewBox="0 0 63 28" fill="none" xmlns="http://www.w3.org/2000/svg">
<g clip-path="url(#clip0_2103_1083)">
<path d="M0.564453 21.7773H13.2485V18.2213H5.10045V1.75732H0.564453V21.7773Z" fill="black"/>
<path d="M21.587 19.0054C19.291 19.0054 18.003 17.3254 18.003 14.5254V14.3014C18.003 11.5014 19.347 9.87736 21.587 9.87736C23.855 9.87736 25.171 11.5574 25.171 14.3574V14.5534C25.171 17.3254 23.855 19.0054 21.587 19.0054ZM21.559 22.0854C25.955 22.0854 29.287 19.1454 29.287 14.5254V14.3014C29.287 9.73736 25.983 6.79736 21.587 6.79736C17.191 6.79736 13.859 9.79336 13.859 14.3854V14.6094C13.859 19.1734 17.191 22.0854 21.559 22.0854Z" fill="black"/>
<path d="M37.6649 27.1814C42.4809 27.1814 45.3649 24.9694 45.3929 20.6294V7.13336H41.3609V9.31736C40.5209 7.83336 39.0929 6.79736 36.7129 6.79736C33.0729 6.79736 30.2729 9.73736 30.2729 13.9374V14.1334C30.2729 18.4734 33.1009 21.1334 36.6569 21.1334C38.8129 21.1334 40.5489 19.8454 41.3609 18.4174V20.6294C41.3609 22.9254 40.1289 24.2134 37.6649 24.2134C35.5929 24.2134 34.6689 23.3734 34.4169 22.0854H30.3849C30.7769 25.1094 32.9329 27.1814 37.6649 27.1814ZM37.8609 18.0814C35.8449 18.0814 34.4169 16.5694 34.4169 14.1334V13.9094C34.4169 11.5014 35.6769 9.87736 37.9449 9.87736C40.1569 9.87736 41.4729 11.3894 41.4729 13.8814V14.0774C41.4729 16.5694 39.9889 18.0814 37.8609 18.0814Z" fill="black"/>
<path d="M54.9617 19.0054C52.6657 19.0054 51.3777 17.3254 51.3777 14.5254V14.3014C51.3777 11.5014 52.7217 9.87736 54.9617 9.87736C57.2297 9.87736 58.5457 11.5574 58.5457 14.3574V14.5534C58.5457 17.3254 57.2297 19.0054 54.9617 19.0054ZM54.9337 22.0854C59.3297 22.0854 62.6617 19.1454 62.6617 14.5254V14.3014C62.6617 9.73736 59.3577 6.79736 54.9617 6.79736C50.5657 6.79736 47.2337 9.79336 47.2337 14.3854V14.6094C47.2337 19.1734 50.5657 22.0854 54.9337 22.0854Z" fill="black"/>
</g>
<defs>
<clipPath id="clip0_2103_1083">
<rect width="63" height="27" fill="white" transform="translate(0 0.777344)"/>
</clipPath>
</defs>
</svg>
