<svg width="238" height="38" viewBox="0 0 238 38" fill="none" xmlns="http://www.w3.org/2000/svg">
<path d="M8.84144 33.5666V33.1401C7.45941 33.1401 6.47254 32.3528 7.06525 30.9419L9.23658 25.725H18.7112L20.5867 30.286C21.2443 31.8606 21.146 33.1411 19.4356 33.1411H18.5471V33.5676H27.7917V33.1411C26.1472 33.1411 25.1269 32.4195 24.2059 30.2537L15.553 9.64453H9.79588V10.071C11.112 10.071 12.2965 10.3995 12.8224 11.7113L13.7434 13.9428L6.57181 31.0723C6.07837 32.2538 4.79563 33.1401 3.70947 33.1401V33.5666H8.84144ZM13.9734 14.436L18.5136 25.2975H9.43416L13.9744 14.436H13.9734Z" fill="black"/>
<mask id="mask0_105_244" style="mask-type:luminance" maskUnits="userSpaceOnUse" x="0" y="23" width="27" height="15">
<path d="M26.4146 23.1035H0.553223V37.3103H26.4146V23.1035Z" fill="white"/>
</mask>
<g mask="url(#mask0_105_244)">
<path d="M21.9181 30.9354C22.0753 30.9815 22.2385 31.0168 22.4036 31.0403C22.5668 31.0628 22.7329 31.0756 22.901 31.0756C23.8702 31.0756 24.747 30.6834 25.382 30.05C26.0169 29.4167 26.4101 28.5411 26.4101 27.5734C26.4101 26.6057 26.0169 25.7302 25.382 25.0968C24.747 24.4634 23.8692 24.0712 22.901 24.0712C22.3623 24.0712 21.8522 24.1928 21.3951 24.4095C20.9213 24.635 20.5056 24.9625 20.1782 25.3644C19.1855 26.5655 18.3765 27.8254 17.5685 29.0843C15.9034 31.6786 14.2393 34.2699 10.9887 36.2936C10.6918 36.4553 10.3812 36.5955 10.0598 36.7132C9.31569 36.9858 8.51066 37.1338 7.6722 37.1338C5.75545 37.1338 4.02055 36.3583 2.76435 35.1053C1.50814 33.8513 0.731612 32.1198 0.731612 30.2069C0.731612 28.294 1.50814 26.5626 2.76435 25.3086C3.95273 24.1232 5.56869 23.3653 7.36257 23.2869C7.22103 23.3888 7.12961 23.5545 7.12961 23.7418C7.12961 24.0516 7.38125 24.3026 7.69186 24.3026C8.00247 24.3026 8.25411 24.0516 8.25411 23.7418C8.25411 23.4722 8.06341 23.2467 7.80981 23.1927V23.1045L7.67318 23.1025C5.70827 23.1025 3.92816 23.8977 2.6405 25.1831C1.35283 26.4684 0.555664 28.244 0.555664 30.2059C0.555664 32.1678 1.35185 33.9434 2.6405 35.2288C3.92816 36.5142 5.70729 37.3093 7.67318 37.3093C8.53326 37.3093 9.35796 37.1564 10.1217 36.8779C10.913 36.5887 11.6394 36.1622 12.2704 35.6288C14.7966 33.7277 16.2563 31.455 17.7179 29.1784C18.5239 27.9224 19.3309 26.6655 20.3159 25.4743L20.248 25.4184L20.3168 25.4743C20.6284 25.0929 21.0226 24.7811 21.4728 24.5673C21.9063 24.3614 22.3909 24.2467 22.903 24.2467C23.823 24.2467 24.6565 24.6193 25.2591 25.2213C25.8616 25.8233 26.2352 26.6547 26.2352 27.5724C26.2352 28.4901 25.8626 29.3225 25.2591 29.9245C24.6565 30.5265 23.823 30.8981 22.903 30.8981C22.7418 30.8981 22.5835 30.8864 22.4302 30.8648C22.2719 30.8422 22.1186 30.8089 21.9692 30.7658L21.92 30.9354H21.9181Z" fill="black"/>
</g>
<path d="M0 0V0.41081C1.70934 0.41081 2.15167 0.789265 2.84858 2.27367L13.0712 23.3936L13.546 23.0152L20.8247 2.30407C21.3309 0.788285 21.964 0.40983 23.7362 0.40983V0H18.5777V0.41081C20.5711 0.41081 20.8876 0.915744 20.4129 2.27367L14.6528 18.658L6.5828 2.02071C5.91832 0.600038 6.64571 0.379436 8.7669 0.379436V0H0Z" fill="black"/>
<path d="M43.1944 19.3527L44.6875 22.549H46.1963L41.1243 11.6846H40.3458L35.7407 22.549H36.4573L37.8256 19.3527H43.1954H43.1944ZM42.8671 18.6536H38.1224L40.3625 13.4229H40.4245L42.8671 18.6536Z" fill="black"/>
<path d="M60.4203 11.6858V19.9893H60.3564L51.7212 11.5005H51.6436V22.5512H52.3582V14.2477H52.422L61.0572 22.7365H61.1349V11.6858H60.4203Z" fill="black"/>
<path d="M72.0124 22.55V12.5385H76.184V11.6846H66.4263V12.5385H70.5979V22.549H72.0133L72.0124 22.55Z" fill="black"/>
<path d="M80.3843 17.1165C80.3843 17.697 80.4954 18.3156 80.7185 18.9735C80.9426 19.6304 81.2925 20.2383 81.7693 20.7972C82.247 21.356 82.8534 21.8188 83.5897 22.1865C84.3269 22.5522 85.2086 22.7355 86.2358 22.7355C86.9307 22.7355 87.5608 22.6502 88.126 22.4806C88.6921 22.309 89.2013 22.0796 89.6515 21.7904C90.1027 21.5001 90.4949 21.1668 90.8271 20.7893C91.1593 20.4109 91.4316 20.0128 91.6439 19.5941C91.8572 19.1745 92.0175 18.7539 92.1256 18.3294C92.2347 17.9048 92.2897 17.4999 92.2897 17.1156C92.2897 16.5371 92.1698 15.9194 91.931 15.2625C91.6931 14.6046 91.3255 13.9967 90.8271 13.4389C90.3288 12.879 89.6977 12.4162 88.9349 12.0496C88.1732 11.6819 87.2728 11.4976 86.2358 11.4976C85.1988 11.4976 84.3269 11.6789 83.5897 12.0407C82.8534 12.4015 82.247 12.8594 81.7693 13.4134C81.2925 13.9683 80.9426 14.5752 80.7185 15.237C80.4954 15.8988 80.3843 16.5253 80.3843 17.1146V17.1165ZM81.9098 17.1165C81.9098 16.392 82.0209 15.7272 82.244 15.1233C82.4662 14.5174 82.7728 13.9977 83.1611 13.5624C83.5503 13.1281 84.0094 12.7898 84.5372 12.5476C85.067 12.3045 85.643 12.1819 86.2653 12.1819C86.8875 12.1819 87.4576 12.3035 88.0021 12.5476C88.5467 12.7898 89.0244 13.129 89.4333 13.5624C89.8432 13.9967 90.1666 14.5174 90.4044 15.1233C90.6433 15.7282 90.7632 16.393 90.7632 17.1165C90.7632 17.8401 90.6433 18.5068 90.4044 19.1118C90.1666 19.7167 89.8432 20.2363 89.4333 20.6726C89.0234 21.107 88.5467 21.4462 88.0021 21.6904C87.4576 21.9325 86.8786 22.0541 86.2653 22.0541C85.6519 22.0541 85.0661 21.9335 84.5372 21.6904C84.0084 21.4472 83.5503 21.108 83.1611 20.6726C82.7719 20.2373 82.4662 19.7167 82.244 19.1118C82.0209 18.5058 81.9098 17.8411 81.9098 17.1165Z" fill="black"/>
<path d="M106.823 11.6858V19.9893H106.759L98.1236 11.5005H98.0459V22.5512H98.7605V14.2477H98.8244L107.46 22.7365H107.537V11.6858H106.823Z" fill="black"/>
<path d="M115.007 11.6855V22.55H116.423V11.6855H115.007Z" fill="black"/>
<path d="M122.803 17.1165C122.803 17.697 122.914 18.3156 123.137 18.9735C123.362 19.6304 123.711 20.2383 124.188 20.7972C124.666 21.356 125.272 21.8188 126.009 22.1865C126.746 22.5522 127.628 22.7355 128.655 22.7355C129.35 22.7355 129.98 22.6502 130.545 22.4806C131.111 22.309 131.62 22.0796 132.07 21.7904C132.522 21.5001 132.914 21.1668 133.246 20.7893C133.578 20.4109 133.851 20.0128 134.063 19.5941C134.276 19.1745 134.436 18.7539 134.545 18.3294C134.654 17.9048 134.709 17.4999 134.709 17.1156C134.709 16.5371 134.589 15.9194 134.35 15.2625C134.112 14.6046 133.744 13.9967 133.246 13.4389C132.748 12.879 132.117 12.4162 131.354 12.0496C130.592 11.6819 129.692 11.4976 128.655 11.4976C127.618 11.4976 126.746 11.6789 126.009 12.0407C125.272 12.4015 124.666 12.8594 124.188 13.4134C123.711 13.9683 123.362 14.5752 123.137 15.237C122.914 15.8988 122.803 16.5253 122.803 17.1146V17.1165ZM124.329 17.1165C124.329 16.392 124.44 15.7272 124.663 15.1233C124.885 14.5174 125.192 13.9977 125.58 13.5624C125.969 13.1281 126.428 12.7898 126.956 12.5476C127.486 12.3045 128.062 12.1819 128.684 12.1819C129.306 12.1819 129.877 12.3035 130.421 12.5476C130.966 12.7898 131.443 13.129 131.852 13.5624C132.262 13.9967 132.586 14.5174 132.823 15.1233C133.062 15.7282 133.182 16.393 133.182 17.1165C133.182 17.8401 133.062 18.5068 132.823 19.1118C132.586 19.7167 132.262 20.2363 131.852 20.6726C131.442 21.107 130.966 21.4462 130.421 21.6904C129.877 21.9325 129.298 22.0541 128.684 22.0541C128.071 22.0541 127.485 21.9335 126.956 21.6904C126.427 21.4472 125.969 21.108 125.58 20.6726C125.191 20.2373 124.885 19.7167 124.663 19.1118C124.44 18.5058 124.329 17.8411 124.329 17.1165Z" fill="black"/>
<path d="M147.623 11.6855L152.181 22.55H153.115L157.537 11.6855H156.726L153.101 20.6263H153.037L149.303 11.6855H147.623Z" fill="black"/>
<path d="M162.981 11.6856V22.55H170.015V21.696H164.396V17.1486H169.22V16.4339H164.396V12.5385H170.015V11.6846H162.981V11.6856Z" fill="black"/>
<path d="M184.239 11.6858V19.9893H184.175L175.54 11.5005H175.462V22.5512H176.177V14.2477H176.24L184.876 22.7365H184.953V11.6858H184.239Z" fill="black"/>
<path d="M191.178 11.6855V18.3585C191.178 18.7831 191.22 19.2517 191.303 19.7635C191.386 20.2753 191.582 20.7518 191.893 21.191C192.204 21.6313 192.665 21.9989 193.277 22.2941C193.889 22.5882 194.725 22.7353 195.783 22.7353C196.448 22.7353 197.038 22.6313 197.551 22.4245C198.064 22.2176 198.493 21.9332 198.841 21.5705C199.189 21.2087 199.452 20.7871 199.628 20.3057C199.804 19.8253 199.892 19.3105 199.892 18.7615V11.6855H199.208V18.2507C199.208 18.4781 199.202 18.7085 199.191 18.9409C199.181 19.1743 199.151 19.4066 199.099 19.64C199.047 19.8733 198.966 20.1037 198.857 20.3322C198.748 20.5596 198.59 20.7871 198.382 21.0146C198.01 21.4175 197.59 21.6921 197.123 21.8381C196.656 21.9823 196.168 22.0548 195.659 22.0548C195.223 22.0548 194.837 21.9872 194.5 21.8529C194.162 21.7175 193.843 21.5166 193.543 21.2479C193.304 21.041 193.122 20.8342 192.999 20.6273C192.874 20.4204 192.78 20.2165 192.719 20.0145C192.657 19.8115 192.621 19.6066 192.61 19.3998C192.6 19.1929 192.594 18.986 192.594 18.7791V11.6855H191.178Z" fill="black"/>
<path d="M215.282 20.5481C214.223 21.5413 212.968 22.0374 211.516 22.0374C210.706 22.0374 209.991 21.8982 209.369 21.6188C208.746 21.3403 208.227 20.9668 207.812 20.5011C207.398 20.0354 207.083 19.4981 206.871 18.8872C206.659 18.2764 206.553 17.6391 206.553 16.9773C206.553 16.2734 206.664 15.6292 206.888 15.0448C207.11 14.4605 207.423 13.9565 207.827 13.531C208.233 13.1065 208.713 12.7751 209.267 12.5378C209.823 12.2996 210.427 12.18 211.082 12.18C211.528 12.18 211.935 12.2319 212.303 12.3349C212.671 12.4388 212.998 12.5731 213.284 12.7398C213.569 12.9045 213.803 13.0928 213.984 13.3055C214.165 13.5183 214.293 13.732 214.366 13.9487H215.519C215.364 13.5977 215.163 13.2722 214.919 12.9722C214.676 12.6712 214.373 12.4123 214.01 12.1956C213.646 11.978 213.221 11.8074 212.732 11.6829C212.245 11.5593 211.69 11.4966 211.067 11.4966C210.165 11.4966 209.343 11.626 208.602 11.8848C207.861 12.1427 207.225 12.5123 206.695 12.9937C206.165 13.4751 205.755 14.0536 205.464 14.7321C205.174 15.4106 205.03 16.1684 205.03 17.0058C205.03 17.7303 205.147 18.4372 205.38 19.1265C205.614 19.8148 205.973 20.4246 206.461 20.957C206.948 21.4894 207.571 21.9188 208.329 22.2463C209.086 22.5718 209.989 22.7345 211.036 22.7345C211.699 22.7345 212.293 22.6718 212.818 22.5483C213.342 22.4247 213.799 22.2718 214.188 22.0904C214.577 21.91 214.902 21.7158 215.161 21.508C215.421 21.3011 215.618 21.1197 215.753 20.9648L215.286 20.5462L215.282 20.5481Z" fill="black"/>
<path d="M230.205 20.5481C229.146 21.5413 227.891 22.0374 226.439 22.0374C225.629 22.0374 224.914 21.8982 224.291 21.6188C223.669 21.3403 223.15 20.9668 222.735 20.5011C222.321 20.0354 222.006 19.4981 221.794 18.8872C221.581 18.2764 221.476 17.6391 221.476 16.9773C221.476 16.2734 221.587 15.6292 221.81 15.0448C222.033 14.4605 222.346 13.9565 222.75 13.531C223.156 13.1065 223.636 12.7751 224.19 12.5378C224.745 12.2996 225.35 12.18 226.005 12.18C226.451 12.18 226.858 12.2319 227.225 12.3349C227.594 12.4388 227.92 12.5731 228.206 12.7398C228.491 12.9045 228.725 13.0928 228.907 13.3055C229.088 13.5183 229.216 13.732 229.289 13.9487H230.442C230.286 13.5977 230.086 13.2722 229.842 12.9722C229.599 12.6712 229.296 12.4123 228.933 12.1956C228.569 11.978 228.144 11.8074 227.655 11.6829C227.167 11.5593 226.613 11.4966 225.99 11.4966C225.088 11.4966 224.266 11.626 223.525 11.8848C222.784 12.1427 222.148 12.5123 221.618 12.9937C221.088 13.4751 220.678 14.0536 220.387 14.7321C220.097 15.4106 219.953 16.1684 219.953 17.0058C219.953 17.7303 220.07 18.4372 220.303 19.1265C220.537 19.8148 220.896 20.4246 221.384 20.957C221.871 21.4894 222.494 21.9188 223.251 22.2463C224.009 22.5718 224.912 22.7345 225.958 22.7345C226.622 22.7345 227.216 22.6718 227.741 22.5483C228.264 22.4247 228.722 22.2718 229.111 22.0904C229.5 21.91 229.824 21.7158 230.084 21.508C230.343 21.3011 230.541 21.1197 230.676 20.9648L230.209 20.5462L230.205 20.5481Z" fill="black"/>
<path d="M236.584 11.6855V22.55H238V11.6855H236.584Z" fill="black"/>
</svg>
