<svg width="24" height="25" viewBox="0 0 24 25" fill="none" xmlns="http://www.w3.org/2000/svg">
<path fill-rule="evenodd" clip-rule="evenodd" d="M5 3.27734H19C20.1046 3.27734 21 4.17277 21 5.27734V19.2773C21 20.3819 20.1046 21.2773 19 21.2773H5C3.89543 21.2773 3 20.3819 3 19.2773V5.27734C3 4.17277 3.89543 3.27734 5 3.27734ZM8 18.2773C8.27614 18.2773 8.5 18.0534 8.5 17.7773V10.7773C8.5 10.5012 8.27614 10.2773 8 10.2773H6.5C6.22386 10.2773 6 10.5012 6 10.7773V17.7773C6 18.0534 6.22386 18.2773 6.5 18.2773H8ZM7.25 9.27734C6.42157 9.27734 5.75 8.60577 5.75 7.77734C5.75 6.94891 6.42157 6.27734 7.25 6.27734C8.07843 6.27734 8.75 6.94891 8.75 7.77734C8.75 8.60577 8.07843 9.27734 7.25 9.27734ZM17.5 18.2773C17.7761 18.2773 18 18.0534 18 17.7773V13.1773C18.0325 11.5881 16.8576 10.2319 15.28 10.0373C14.177 9.93659 13.1083 10.4517 12.5 11.3773V10.7773C12.5 10.5012 12.2761 10.2773 12 10.2773H10.5C10.2239 10.2773 10 10.5012 10 10.7773V17.7773C10 18.0534 10.2239 18.2773 10.5 18.2773H12C12.2761 18.2773 12.5 18.0534 12.5 17.7773V14.0273C12.5 13.1989 13.1716 12.5273 14 12.5273C14.8284 12.5273 15.5 13.1989 15.5 14.0273V17.7773C15.5 18.0534 15.7239 18.2773 16 18.2773H17.5Z" fill="black"></path>
</svg>
