<svg width="100" height="100" viewBox="0 0 100 100" fill="none" xmlns="http://www.w3.org/2000/svg">
<circle cx="50" cy="50" r="50" fill="white"/>
<g clip-path="url(#clip0_127_1119)">
<path d="M65.7986 43.1952L65.0204 43.4068C59.6962 44.7855 55.9215 40.7654 55.7645 40.6016C55.4437 40.2535 54.9522 40.1239 54.5085 40.2672L37.4641 45.8911C34.7815 46.7375 32.9795 49.1945 32.9795 52.0065V53.822C32.9795 55.7945 34.5836 57.3984 36.5563 57.3984H65.7918C67.7645 57.3984 69.3686 55.7945 69.3686 53.822V45.9389C69.3686 45.0516 68.9658 44.2258 68.2559 43.6866C67.546 43.1474 66.6519 42.97 65.7918 43.202L65.7986 43.1952ZM66.9863 53.8152C66.9863 54.4704 66.4539 55.0028 65.7986 55.0028H36.5631C35.9078 55.0028 35.3754 54.4704 35.3754 53.8152V51.9997C35.3754 50.2388 36.5085 48.6963 38.2013 48.1571L43.86 46.2938L44.331 47.6384C44.5017 48.1298 44.9658 48.4369 45.4573 48.4369C45.587 48.4369 45.7235 48.4165 45.8532 48.3687C46.4744 48.1503 46.802 47.4678 46.5836 46.8467L46.1263 45.5431L49.4437 44.451L50.0785 45.9662C50.2696 46.4235 50.7133 46.6965 51.1843 46.6965C51.3413 46.6965 51.4914 46.6692 51.6484 46.601C52.2559 46.3484 52.5426 45.6454 52.2901 45.038L51.7235 43.6934L54.5768 42.7515C56.0375 44.0688 60.1536 47.1333 65.6416 45.7L66.4266 45.4885C66.6109 45.4407 66.7474 45.5157 66.8157 45.5635C66.8839 45.6113 66.9931 45.7273 66.9931 45.9184V53.8015L66.9863 53.8152Z" fill="#232F45"/>
<path d="M80.9518 48.3075C80.9176 47.6523 80.3442 47.1472 79.6958 47.1813C79.0337 47.2154 78.5354 47.7819 78.5695 48.4372C79.3408 62.3332 70.0507 74.7073 56.4671 77.8605C43.6685 80.8295 30.6719 74.7619 24.6855 63.3092L31.5661 64.7903C32.2077 64.9268 32.8425 64.5173 32.9859 63.8757C33.1224 63.2273 32.7129 62.5926 32.0712 62.4561L22.8221 60.47C22.7606 60.4563 22.6924 60.4495 22.6309 60.4495C22.6173 60.4495 22.5968 60.4495 22.5832 60.4495C22.5627 60.4495 22.5422 60.4495 22.5217 60.4495C22.2965 60.4631 22.0849 60.5314 21.9074 60.6542C21.9074 60.6542 21.8937 60.6611 21.8869 60.6679C21.8323 60.7088 21.7777 60.7498 21.7299 60.8044C21.7299 60.8044 21.7163 60.818 21.7163 60.8249C21.6685 60.8726 21.6275 60.9272 21.5866 60.9887V60.9955C21.5115 61.1115 21.4501 61.2412 21.4228 61.3845L19.4364 70.6327C19.2999 71.2811 19.7094 71.9158 20.3511 72.0523C20.433 72.0728 20.5217 72.0796 20.6036 72.0796C21.1565 72.0796 21.648 71.6974 21.7709 71.1377L23.0405 65.2476C28.549 75.0554 38.8972 81.0001 49.9756 81.0001C52.3101 81.0001 54.6719 80.7339 57.0337 80.1879C71.7504 76.7753 81.8187 63.3707 80.9791 48.3075H80.9518Z" fill="#232F45"/>
<path d="M20.2424 52.8189C20.2424 52.8189 20.2901 52.8189 20.3106 52.8189C20.9727 52.7848 21.471 52.2183 21.4369 51.5631C20.6587 37.6602 29.9557 25.2861 43.5393 22.1397C56.3448 19.1639 69.3345 25.2383 75.3209 36.691L68.4335 35.2099C67.785 35.0734 67.1502 35.4829 67.0137 36.1245C66.8772 36.7729 67.2867 37.4076 67.9284 37.5441L77.1775 39.5371C77.2594 39.5576 77.3482 39.5644 77.4301 39.5644C77.4437 39.5644 77.4642 39.5644 77.4779 39.5644C77.5598 39.5644 77.6349 39.5507 77.7168 39.5303C77.7509 39.5234 77.785 39.5098 77.8192 39.4961C77.8465 39.4893 77.8669 39.4825 77.8942 39.4757C77.942 39.4552 77.983 39.4279 78.0239 39.4074C78.0376 39.4006 78.0581 39.3938 78.0785 39.3801C78.0785 39.3801 78.0922 39.3665 78.099 39.3665C78.1263 39.3528 78.14 39.3323 78.1673 39.3119C78.2082 39.2846 78.2424 39.2504 78.2765 39.2163C78.297 39.1958 78.3174 39.1685 78.3379 39.1412C78.3652 39.1071 78.3994 39.073 78.4198 39.0389C78.4403 39.0116 78.454 38.9774 78.4676 38.9501C78.4881 38.916 78.5086 38.8751 78.5291 38.8409C78.5427 38.8068 78.5564 38.7658 78.5632 38.7249C78.57 38.6908 78.5837 38.6635 78.5905 38.6293L80.5768 29.3812C80.7134 28.7328 80.3038 28.0981 79.6622 27.9616C79.0205 27.8251 78.3857 28.2346 78.2424 28.8762L76.9727 34.7731C70.3174 22.8905 56.5632 16.6659 43 19.8123C28.2833 23.2249 18.2082 36.6296 19.0478 51.6928C19.082 52.3275 19.6076 52.8189 20.2424 52.8189Z" fill="#232F45"/>
</g>
<defs>
<clipPath id="clip0_127_1119">
<rect width="62" height="62" fill="white" transform="translate(19 19)"/>
</clipPath>
</defs>
</svg>
