<svg width="100" height="100" viewBox="0 0 100 100" fill="none" xmlns="http://www.w3.org/2000/svg">
<circle cx="50" cy="50" r="50" fill="white"/>
<g clip-path="url(#clip0_127_1129)">
<path d="M72.1756 34.2462C67.2095 27.206 59.1085 23 50.5028 23C41.8972 23 33.7961 27.206 28.83 34.2462C25.6724 38.7186 24 43.9959 24 49.5C24 55.0041 25.6724 60.2814 28.83 64.7538C28.83 64.7595 28.8414 64.7708 28.847 64.7765C28.847 64.7765 28.847 64.7765 28.847 64.7821C33.8131 71.8053 41.9029 76 50.4972 76C59.0915 76 67.2039 71.794 72.17 64.7538C75.3276 60.2814 77 55.0041 77 49.5C77 43.9959 75.3276 38.7186 72.17 34.2462H72.1756ZM74.9988 48.508H63.7231C63.655 44.6591 63.2015 41.0483 62.4249 37.8173C65.6109 37.3752 68.5078 36.763 70.9568 35.9921C73.4342 39.7219 74.8174 44.0186 74.9988 48.508ZM69.7266 34.2916C67.4533 34.9604 64.8059 35.4989 61.909 35.8901C60.6221 31.5027 58.723 27.9712 56.427 25.7209C61.6425 27.0246 66.3365 30.0175 69.7266 34.2972V34.2916ZM39.2611 48.508C39.3348 44.7725 39.811 41.2241 40.5933 38.0667C43.7226 38.4125 47.0674 38.5996 50.4972 38.5996C53.9269 38.5996 57.2717 38.4125 60.401 38.0667C61.189 41.2241 61.6652 44.7725 61.7389 48.508H39.2668H39.2611ZM61.7332 50.492C61.6595 54.2275 61.1833 57.7759 60.3953 60.9333C57.266 60.5875 53.9156 60.4004 50.4915 60.4004C47.0674 60.4004 43.717 60.5875 40.5877 60.9333C39.7997 57.7759 39.3235 54.2275 39.2554 50.492H61.7276H61.7332ZM50.5028 24.984C54.3578 24.984 57.8329 29.4734 59.8681 36.1281C56.9089 36.4456 53.7455 36.6156 50.5028 36.6156C47.2601 36.6156 44.0968 36.4456 41.1376 36.1338C43.1727 29.4734 46.6479 24.9896 50.5028 24.9896V24.984ZM44.5787 25.7152C42.2827 27.9656 40.3836 31.5027 39.0967 35.8844C36.1998 35.4933 33.5524 34.9548 31.2791 34.2859C34.6692 30.0062 39.3631 27.0133 44.5787 25.7095V25.7152ZM30.0432 35.9921C32.4922 36.763 35.3948 37.3809 38.5808 37.8173C37.8041 41.0483 37.3506 44.6648 37.2826 48.508H26.0068C26.1826 44.0186 27.5715 39.7219 30.0489 35.9921H30.0432ZM26.0012 50.492H37.2769C37.345 54.3409 37.7985 57.9517 38.5751 61.1827C35.3891 61.6248 32.4922 62.237 30.0375 63.0079C27.5602 59.2781 26.1769 54.9814 25.9955 50.492H26.0012ZM31.2734 64.7085C33.5467 64.0396 36.1941 63.5011 39.091 63.1099C40.3779 67.4973 42.277 71.0288 44.573 73.2791C39.3575 71.9754 34.6635 68.9825 31.2734 64.7028V64.7085ZM50.4972 74.016C46.6422 74.016 43.1671 69.5266 41.1319 62.8719C44.0911 62.5544 47.2545 62.3901 50.4972 62.3901C53.7399 62.3901 56.9032 62.5601 59.8624 62.8775C57.8273 69.5323 54.3521 74.0217 50.4972 74.0217V74.016ZM56.4213 73.2848C58.7173 71.0344 60.6164 67.4973 61.9033 63.1156C64.8002 63.5067 67.4476 64.0452 69.7209 64.7141C66.3308 68.9938 61.6369 71.9867 56.4213 73.2905V73.2848ZM70.9568 63.0079C68.5078 62.237 65.6052 61.6191 62.4249 61.1827C63.2015 57.9517 63.655 54.3352 63.7231 50.492H74.9988C74.8231 54.9814 73.4342 59.2781 70.9568 63.0079Z" fill="#232F45"/>
</g>
<defs>
<clipPath id="clip0_127_1129">
<rect width="53" height="53" fill="white" transform="translate(24 23)"/>
</clipPath>
</defs>
</svg>
