<svg width="100" height="100" viewBox="0 0 100 100" fill="none" xmlns="http://www.w3.org/2000/svg">
<circle cx="50" cy="50" r="50" fill="white"/>
<g clip-path="url(#clip0_127_1137)">
<path d="M73.6528 32.7059H67.0292C66.3961 32.2176 65.6137 31.9412 64.8014 31.9412C63.4635 31.9412 62.1436 32.1824 60.9132 32.6412C60.5967 27.2765 56.0754 23 50.5508 23C45.0261 23 40.1525 27.5941 40.1525 33.2412V41.7882H38.2592C36.2763 41.7882 34.6637 43.3765 34.6637 45.3294C34.6637 46.3118 35.0698 47.2 35.7268 47.8471C35.0698 48.4882 34.6637 49.3824 34.6637 50.3647C34.6637 51.3471 35.0698 52.2353 35.7268 52.8765C35.0698 53.5176 34.6637 54.4118 34.6637 55.3941C34.6637 57.3471 36.2763 58.9353 38.2592 58.9353H39.9673C39.6149 60.6647 38.0561 61.9765 36.1986 61.9765C34.9922 61.9765 33.8932 62.5706 33.2422 63.5176H27.3472C26.0512 63.5176 25 64.5529 25 65.8294V65.9824C25 67.2588 26.0512 68.2941 27.3472 68.2941H33.9708C34.6039 68.7824 35.3863 69.0588 36.1986 69.0588C37.5723 69.0588 38.9341 68.8 40.1823 68.3235C40.481 73.7059 45.0142 77.9941 50.5508 77.9941C56.0874 77.9941 60.9491 73.4 60.9491 67.7529V58.9294H62.8424C64.8253 58.9294 66.4438 57.3412 66.4438 55.3882C66.4438 54.4059 66.0377 53.5176 65.3748 52.8706C66.0317 52.2294 66.4438 51.3412 66.4438 50.3588C66.4438 49.3765 66.0377 48.4882 65.3748 47.8412C66.0317 47.2 66.4438 46.3059 66.4438 45.3235C66.4438 43.3706 64.8312 41.7824 62.8424 41.7824H61.1103C61.5642 40.1941 63.0514 39.0235 64.8074 39.0235C66.0138 39.0235 67.1068 38.4294 67.7638 37.4882H73.6528C74.9488 37.4882 76 36.4529 76 35.1765V35.0235C76 33.7471 74.9488 32.7118 73.6528 32.7118V32.7059ZM42.2429 33.2353C42.2429 28.7235 45.9698 25.0529 50.5508 25.0529C55.1317 25.0529 58.8586 28.7235 58.8586 33.2353V33.6588C57.6641 34.4118 56.6488 35.3706 55.8425 36.4765V33.2353C55.8425 30.3647 53.4714 28.0235 50.5508 28.0235C47.6302 28.0235 45.259 30.3588 45.259 33.2353V41.7824H42.2429V33.2353ZM47.3495 33.2353C47.3495 31.5 48.7829 30.0824 50.5508 30.0824C52.3187 30.0824 53.7521 31.4941 53.7521 33.2353V41.7824H47.3554V33.2353H47.3495ZM27.0904 65.9824V65.8294C27.0904 65.6882 27.2039 65.5765 27.3472 65.5765H32.6031C32.6031 65.8 32.627 66.0235 32.6748 66.2412H27.3472C27.2039 66.2412 27.0904 66.1294 27.0904 65.9882V65.9824ZM35.1116 66.5471C34.8428 66.2706 34.6935 65.9059 34.6935 65.5176C34.6935 65.3176 34.7353 65.1235 34.813 64.9353C35.0459 64.3824 35.5894 64.0294 36.1986 64.0294C37.7157 64.0294 39.1013 63.4647 40.1525 62.5412V66.0941C38.9281 66.6882 37.5723 67.0059 36.1986 67.0059C35.7925 67.0059 35.3983 66.8412 35.1116 66.5529V66.5471ZM58.8527 67.7588C58.8527 72.2706 55.1258 75.9412 50.5448 75.9412C45.9638 75.9412 42.2369 72.2706 42.2369 67.7588V59.2118H45.2531V67.7588C45.2531 70.6353 47.6242 72.9706 50.5388 72.9706C53.4534 72.9706 55.8246 70.6294 55.8246 67.7588V59.2118H58.8407V67.7588H58.8527ZM53.7461 67.7588C53.7461 69.5 52.3127 70.9118 50.5508 70.9118C48.7889 70.9118 47.3554 69.4941 47.3554 67.7588V58.9353H53.7521V67.7588H53.7461ZM64.3415 55.3882C64.3415 56.2059 63.6666 56.8706 62.8304 56.8706H38.2592C37.429 56.8706 36.7541 56.2059 36.7541 55.3882C36.7541 54.5706 37.429 53.9 38.2592 53.9H62.8364C63.6666 53.9 64.3475 54.5647 64.3475 55.3882H64.3415ZM64.3415 50.3588C64.3415 51.1765 63.6666 51.8412 62.8304 51.8412H38.2592C37.429 51.8412 36.7541 51.1765 36.7541 50.3588C36.7541 49.5412 37.429 48.8706 38.2592 48.8706H62.8364C63.6666 48.8706 64.3475 49.5353 64.3475 50.3588H64.3415ZM64.3415 45.3294C64.3415 46.1471 63.6666 46.8176 62.8304 46.8176H38.2592C37.429 46.8176 36.7541 46.1529 36.7541 45.3294C36.7541 44.5059 37.429 43.8471 38.2592 43.8471H54.7913C54.7913 43.8471 54.8033 43.8471 54.8092 43.8471H59.9098C59.9098 43.8471 59.9218 43.8471 59.9277 43.8471H62.8364C63.6666 43.8471 64.3475 44.5118 64.3475 45.3294H64.3415ZM64.8014 36.9647C61.8868 36.9647 59.4499 39.0471 58.9602 41.7824H55.9142C56.2427 39.0059 57.909 36.5176 60.4175 35.1294C61.7374 34.3882 63.2545 33.9941 64.8014 33.9941C65.2075 33.9941 65.6017 34.1588 65.8884 34.4471C66.1631 34.7235 66.3124 35.0882 66.3124 35.4765C66.3124 35.6765 66.2706 35.8706 66.193 36.0529C65.9601 36.6 65.4166 36.9588 64.8074 36.9588L64.8014 36.9647ZM73.9096 35.1706C73.9096 35.3118 73.7961 35.4235 73.6528 35.4235H68.3969C68.3969 35.2 68.373 34.9765 68.3252 34.7588H73.6528C73.7961 34.7588 73.9096 34.8706 73.9096 35.0118V35.1647V35.1706Z" fill="#232F45"/>
</g>
<defs>
<clipPath id="clip0_127_1137">
<rect width="51" height="55" fill="white" transform="translate(25 23)"/>
</clipPath>
</defs>
</svg>
