<svg width="100" height="100" viewBox="0 0 100 100" fill="none" xmlns="http://www.w3.org/2000/svg">
<circle cx="50" cy="50" r="50" fill="white"/>
<g clip-path="url(#clip0_127_1109)">
<path d="M72.9587 60.4703H51.6006C51.2832 60.4703 50.979 60.6029 50.7608 60.8283C50.5426 61.0604 50.4302 61.3654 50.4434 61.6837C50.4897 62.632 50.5294 63.5736 50.5625 64.5218L50.655 67.6782C50.8732 75.1447 55.9053 80.9932 62.1143 80.9932C68.3234 80.9932 72.9124 75.6752 73.5207 68.6198L74.1159 61.7235C74.1423 61.3986 74.0365 61.0803 73.8183 60.8416C73.6001 60.6029 73.2893 60.4636 72.9653 60.4636L72.9587 60.4703ZM71.213 68.4275C70.7105 74.276 66.7959 78.679 62.1143 78.679C57.1683 78.679 53.1545 73.8185 52.9694 67.6185L52.8768 64.4621C52.8636 63.9051 52.8371 63.3481 52.8173 62.7911H71.7023L71.213 68.4275Z" fill="#232F45"/>
<path d="M61.1556 19.0729C57.4394 18.6485 53.8885 20.0808 51.1576 23.1046C47.6001 27.0368 46.1454 32.9848 47.3555 38.6145L47.5538 39.5296C48.6978 44.8742 49.5376 50.4177 50.0467 55.9944C50.0996 56.5912 50.6022 57.0487 51.1973 57.0487H73.4613C74.063 57.0487 74.5589 56.5912 74.6118 55.9878L75.9145 40.889C76.8534 29.8947 70.241 20.1073 61.1556 19.0729ZM73.6001 40.69L72.3901 54.7279H52.242C51.7197 49.4164 50.8997 44.1448 49.8087 39.0389L49.6103 38.1238C48.5589 33.2102 49.8021 28.0513 52.8702 24.6562C55.0854 22.2027 57.9353 21.0357 60.8911 21.3739C68.74 22.2691 74.4399 30.9292 73.6001 40.6834V40.69Z" fill="#232F45"/>
<path d="M35.1551 19H27.9013C25.7457 19 24 20.7572 24 22.9123V76.8954C24 79.0505 25.7457 80.8077 27.9013 80.8077H35.1617C37.3108 80.8077 39.0631 79.0505 39.0631 76.8954V22.9123C39.0565 20.7572 37.3042 19 35.1551 19ZM35.1551 78.4802H27.9013C27.0285 78.4802 26.3143 77.7707 26.3143 76.8888V22.9123C26.3143 22.037 27.0219 21.3209 27.9013 21.3209H35.1617C36.0346 21.3209 36.7487 22.0304 36.7487 22.9123V23.6948H34.527C33.8856 23.6948 33.3698 24.212 33.3698 24.8552C33.3698 25.4984 33.8856 26.0156 34.527 26.0156H36.7487V28.7078H34.527C33.8856 28.7078 33.3698 29.225 33.3698 29.8682C33.3698 30.5114 33.8856 31.0287 34.527 31.0287H36.7487V33.7209H32.2854C31.6439 33.7209 31.1282 34.2381 31.1282 34.8813C31.1282 35.5245 31.6439 36.0417 32.2854 36.0417H36.7487V38.7339H34.527C33.8856 38.7339 33.3698 39.2511 33.3698 39.8943C33.3698 40.5375 33.8856 41.0548 34.527 41.0548H36.7487V43.747H34.527C33.8856 43.747 33.3698 44.2642 33.3698 44.9074C33.3698 45.5506 33.8856 46.0678 34.527 46.0678H36.7487V48.76H34.527C33.8856 48.76 33.3698 49.2772 33.3698 49.9204C33.3698 50.5636 33.8856 51.0809 34.527 51.0809H36.7487V53.773H32.2854C31.6439 53.773 31.1282 54.2903 31.1282 54.9335C31.1282 55.5767 31.6439 56.0939 32.2854 56.0939H36.7487V58.7861H34.527C33.8856 58.7861 33.3698 59.3033 33.3698 59.9465C33.3698 60.5897 33.8856 61.107 34.527 61.107H36.7487V63.7991H34.527C33.8856 63.7991 33.3698 64.3164 33.3698 64.9596C33.3698 65.6028 33.8856 66.12 34.527 66.12H36.7487V68.8122H34.527C33.8856 68.8122 33.3698 69.3294 33.3698 69.9726C33.3698 70.6158 33.8856 71.133 34.527 71.133H36.7487V73.8252H32.2854C31.6439 73.8252 31.1282 74.3425 31.1282 74.9857C31.1282 75.6289 31.6439 76.1461 32.2854 76.1461H36.7487V76.9286C36.7487 77.8039 36.0412 78.52 35.1617 78.52L35.1551 78.4802Z" fill="#232F45"/>
</g>
<defs>
<clipPath id="clip0_127_1109">
<rect width="52" height="62" fill="white" transform="translate(24 19)"/>
</clipPath>
</defs>
</svg>
