<svg width="25" height="25" viewBox="0 0 25 25" fill="none" xmlns="http://www.w3.org/2000/svg">
<path fill-rule="evenodd" clip-rule="evenodd" d="M5.33301 3.31006H19.333C20.4376 3.31006 21.333 4.20549 21.333 5.31006V19.3101C21.333 20.4147 20.4376 21.3101 19.333 21.3101H5.33301C4.22844 21.3101 3.33301 20.4147 3.33301 19.3101V5.31006C3.33301 4.20549 4.22844 3.31006 5.33301 3.31006ZM8.33301 18.3101C8.60915 18.3101 8.83301 18.0862 8.83301 17.8101V10.8101C8.83301 10.534 8.60915 10.3101 8.33301 10.3101H6.83301C6.55687 10.3101 6.33301 10.534 6.33301 10.8101V17.8101C6.33301 18.0862 6.55687 18.3101 6.83301 18.3101H8.33301ZM7.58301 9.31006C6.75458 9.31006 6.08301 8.63849 6.08301 7.81006C6.08301 6.98163 6.75458 6.31006 7.58301 6.31006C8.41144 6.31006 9.08301 6.98163 9.08301 7.81006C9.08301 8.63849 8.41144 9.31006 7.58301 9.31006ZM17.833 18.3101C18.1091 18.3101 18.333 18.0862 18.333 17.8101V13.2101C18.3655 11.6209 17.1906 10.2646 15.613 10.0701C14.51 9.96931 13.4413 10.4845 12.833 11.4101V10.8101C12.833 10.534 12.6091 10.3101 12.333 10.3101H10.833C10.5569 10.3101 10.333 10.534 10.333 10.8101V17.8101C10.333 18.0862 10.5569 18.3101 10.833 18.3101H12.333C12.6091 18.3101 12.833 18.0862 12.833 17.8101V14.0601C12.833 13.2317 13.5046 12.5601 14.333 12.5601C15.1614 12.5601 15.833 13.2317 15.833 14.0601V17.8101C15.833 18.0862 16.0569 18.3101 16.333 18.3101H17.833Z" fill="black"/>
</svg>
