<svg width="25" height="25" viewBox="0 0 25 25" fill="none" xmlns="http://www.w3.org/2000/svg">
<path fill-rule="evenodd" clip-rule="evenodd" d="M16.333 3.31006H8.33301C5.57159 3.31006 3.33301 5.54864 3.33301 8.31006V16.3101C3.33301 19.0715 5.57159 21.3101 8.33301 21.3101H16.333C19.0944 21.3101 21.333 19.0715 21.333 16.3101V8.31006C21.333 5.54864 19.0944 3.31006 16.333 3.31006ZM19.583 16.3101C19.5775 18.1027 18.1256 19.5546 16.333 19.5601H8.33301C6.54036 19.5546 5.0885 18.1027 5.08301 16.3101V8.31006C5.0885 6.51741 6.54036 5.06555 8.33301 5.06006H16.333C18.1256 5.06555 19.5775 6.51741 19.583 8.31006V16.3101ZM17.083 8.56006C17.6353 8.56006 18.083 8.11234 18.083 7.56006C18.083 7.00778 17.6353 6.56006 17.083 6.56006C16.5307 6.56006 16.083 7.00778 16.083 7.56006C16.083 8.11234 16.5307 8.56006 17.083 8.56006ZM12.333 7.81006C9.84773 7.81006 7.83301 9.82478 7.83301 12.3101C7.83301 14.7954 9.84773 16.8101 12.333 16.8101C14.8183 16.8101 16.833 14.7954 16.833 12.3101C16.8357 11.1158 16.3624 9.96963 15.5179 9.12514C14.6734 8.28065 13.5273 7.8074 12.333 7.81006ZM9.58301 12.3101C9.58301 13.8289 10.8142 15.0601 12.333 15.0601C13.8518 15.0601 15.083 13.8289 15.083 12.3101C15.083 10.7913 13.8518 9.56006 12.333 9.56006C10.8142 9.56006 9.58301 10.7913 9.58301 12.3101Z" fill="black"/>
</svg>
