<svg width="24" height="25" viewBox="0 0 24 25" fill="none" xmlns="http://www.w3.org/2000/svg">
<path d="M20.9727 6.99475C20.5083 7.61427 19.9469 8.15468 19.3102 8.59511C19.3102 8.75694 19.3102 8.91877 19.3102 9.0896C19.3153 12.0284 18.1414 14.8464 16.0517 16.9118C13.9619 18.9772 11.1311 20.1172 8.19393 20.0762C6.49587 20.0819 4.81955 19.6942 3.2963 18.9434C3.21416 18.9075 3.16119 18.8263 3.1615 18.7366V18.6377C3.1615 18.5086 3.26611 18.404 3.39515 18.404C5.0643 18.3489 6.6739 17.7702 7.99622 16.7497C6.48541 16.7192 5.12607 15.8242 4.50048 14.448C4.46889 14.3729 4.47872 14.2866 4.52645 14.2205C4.57417 14.1544 4.65288 14.118 4.73413 14.1244C5.1933 14.1705 5.65706 14.1278 6.10008 13.9985C4.43227 13.6523 3.17909 12.2677 2.99974 10.573C2.99337 10.4917 3.0298 10.413 3.09588 10.3652C3.16195 10.3175 3.24812 10.3076 3.32326 10.3393C3.77082 10.5368 4.25397 10.6408 4.74312 10.6449C3.28172 9.68581 2.65049 7.8614 3.20643 6.20357C3.26382 6.04248 3.40169 5.92347 3.56938 5.89029C3.73706 5.8571 3.90984 5.91463 4.0242 6.04174C5.99627 8.1406 8.70592 9.39131 11.5818 9.53014C11.5082 9.2362 11.472 8.93411 11.474 8.63107C11.5009 7.04207 12.4841 5.62656 13.9633 5.04722C15.4424 4.46789 17.1248 4.83938 18.2229 5.98779C18.9713 5.8452 19.6949 5.5938 20.3706 5.24156C20.4201 5.21066 20.4829 5.21066 20.5324 5.24156C20.5633 5.29108 20.5633 5.35387 20.5324 5.40339C20.2051 6.15287 19.6522 6.78147 18.9508 7.20154C19.565 7.13031 20.1684 6.98542 20.7481 6.76999C20.7969 6.73677 20.861 6.73677 20.9098 6.76999C20.9507 6.78869 20.9813 6.82446 20.9934 6.86777C21.0055 6.91108 20.9979 6.95753 20.9727 6.99475Z" fill="black"/>
</svg>
