<svg width="63" height="28" viewBox="0 0 63 28" fill="none" xmlns="http://www.w3.org/2000/svg">
<g clip-path="url(#clip0_127_792)">
<path d="M0.564453 21.7773H13.2485V18.2213H5.10045V1.75732H0.564453V21.7773Z" fill="black"/>
<path d="M21.5874 19.0054C19.2914 19.0054 18.0034 17.3254 18.0034 14.5254V14.3014C18.0034 11.5014 19.3474 9.87736 21.5874 9.87736C23.8554 9.87736 25.1714 11.5574 25.1714 14.3574V14.5534C25.1714 17.3254 23.8554 19.0054 21.5874 19.0054ZM21.5594 22.0854C25.9554 22.0854 29.2874 19.1454 29.2874 14.5254V14.3014C29.2874 9.73736 25.9834 6.79736 21.5874 6.79736C17.1914 6.79736 13.8594 9.79336 13.8594 14.3854V14.6094C13.8594 19.1734 17.1914 22.0854 21.5594 22.0854Z" fill="black"/>
<path d="M37.6645 27.1814C42.4805 27.1814 45.3645 24.9694 45.3925 20.6294V7.13336H41.3605V9.31736C40.5205 7.83336 39.0925 6.79736 36.7125 6.79736C33.0725 6.79736 30.2725 9.73736 30.2725 13.9374V14.1334C30.2725 18.4734 33.1005 21.1334 36.6565 21.1334C38.8125 21.1334 40.5485 19.8454 41.3605 18.4174V20.6294C41.3605 22.9254 40.1285 24.2134 37.6645 24.2134C35.5925 24.2134 34.6685 23.3734 34.4165 22.0854H30.3845C30.7765 25.1094 32.9325 27.1814 37.6645 27.1814ZM37.8605 18.0814C35.8445 18.0814 34.4165 16.5694 34.4165 14.1334V13.9094C34.4165 11.5014 35.6765 9.87736 37.9445 9.87736C40.1565 9.87736 41.4725 11.3894 41.4725 13.8814V14.0774C41.4725 16.5694 39.9885 18.0814 37.8605 18.0814Z" fill="black"/>
<path d="M54.9614 19.0054C52.6654 19.0054 51.3774 17.3254 51.3774 14.5254V14.3014C51.3774 11.5014 52.7214 9.87736 54.9614 9.87736C57.2294 9.87736 58.5454 11.5574 58.5454 14.3574V14.5534C58.5454 17.3254 57.2294 19.0054 54.9614 19.0054ZM54.9334 22.0854C59.3294 22.0854 62.6614 19.1454 62.6614 14.5254V14.3014C62.6614 9.73736 59.3574 6.79736 54.9614 6.79736C50.5654 6.79736 47.2334 9.79336 47.2334 14.3854V14.6094C47.2334 19.1734 50.5654 22.0854 54.9334 22.0854Z" fill="black"/>
</g>
<defs>
<clipPath id="clip0_127_792">
<rect width="63" height="27" fill="white" transform="translate(0 0.777344)"/>
</clipPath>
</defs>
</svg>
