<svg width="16" height="21" viewBox="0 0 16 21" fill="none" xmlns="http://www.w3.org/2000/svg">
<path d="M7.66446 20.7141C12.4805 20.7141 15.3645 18.5021 15.3925 14.1621V0.666078H11.3605V2.85008C10.5205 1.36608 9.09246 0.330078 6.71246 0.330078C3.07246 0.330078 0.272461 3.27008 0.272461 7.47007V7.66607C0.272461 12.0061 3.10046 14.6661 6.65646 14.6661C8.81246 14.6661 10.5485 13.3781 11.3605 11.9501V14.1621C11.3605 16.4581 10.1285 17.7461 7.66446 17.7461C5.59246 17.7461 4.66846 16.9061 4.41646 15.6181H0.38446C0.77646 18.6421 2.93246 20.7141 7.66446 20.7141ZM7.86046 11.6141C5.84446 11.6141 4.41646 10.1021 4.41646 7.66607V7.44207C4.41646 5.03407 5.67646 3.41008 7.94446 3.41008C10.1565 3.41008 11.4725 4.92207 11.4725 7.41407V7.61007C11.4725 10.1021 9.98846 11.6141 7.86046 11.6141Z" fill="black"/>
</svg>
